%TF.GenerationSoftware,KiCad,Pcbnew,4.0.7*%
%TF.CreationDate,2018-03-28T14:10:15+02:00*%
%TF.ProjectId,esp8266-ws2811-pcb,657370383236362D7773323831312D70,rev?*%
%TF.FileFunction,Legend,Top*%
%FSLAX46Y46*%
G04 Gerber Fmt 4.6, Leading zero omitted, Abs format (unit mm)*
G04 Created by KiCad (PCBNEW 4.0.7) date Wed Mar 28 14:10:15 2018*
%MOMM*%
%LPD*%
G01*
G04 APERTURE LIST*
%ADD10C,0.100000*%
%ADD11C,0.300000*%
%ADD12C,0.200000*%
%ADD13C,0.120000*%
%ADD14C,0.152400*%
%ADD15C,0.150000*%
G04 APERTURE END LIST*
D10*
D11*
X150538571Y-83458571D02*
X149824286Y-83958571D01*
X150538571Y-84315714D02*
X149038571Y-84315714D01*
X149038571Y-83744286D01*
X149110000Y-83601428D01*
X149181429Y-83530000D01*
X149324286Y-83458571D01*
X149538571Y-83458571D01*
X149681429Y-83530000D01*
X149752857Y-83601428D01*
X149824286Y-83744286D01*
X149824286Y-84315714D01*
X149752857Y-82815714D02*
X149752857Y-82315714D01*
X150538571Y-82101428D02*
X150538571Y-82815714D01*
X149038571Y-82815714D01*
X149038571Y-82101428D01*
X150467143Y-81530000D02*
X150538571Y-81315714D01*
X150538571Y-80958571D01*
X150467143Y-80815714D01*
X150395714Y-80744285D01*
X150252857Y-80672857D01*
X150110000Y-80672857D01*
X149967143Y-80744285D01*
X149895714Y-80815714D01*
X149824286Y-80958571D01*
X149752857Y-81244285D01*
X149681429Y-81387143D01*
X149610000Y-81458571D01*
X149467143Y-81530000D01*
X149324286Y-81530000D01*
X149181429Y-81458571D01*
X149110000Y-81387143D01*
X149038571Y-81244285D01*
X149038571Y-80887143D01*
X149110000Y-80672857D01*
X149752857Y-80030000D02*
X149752857Y-79530000D01*
X150538571Y-79315714D02*
X150538571Y-80030000D01*
X149038571Y-80030000D01*
X149038571Y-79315714D01*
X149038571Y-78887143D02*
X149038571Y-78030000D01*
X150538571Y-78458571D02*
X149038571Y-78458571D01*
X185312857Y-88895714D02*
X185312857Y-89395714D01*
X186098571Y-89395714D02*
X184598571Y-89395714D01*
X184598571Y-88681428D01*
X186098571Y-87395714D02*
X186098571Y-88110000D01*
X184598571Y-88110000D01*
X185670000Y-86967143D02*
X185670000Y-86252857D01*
X186098571Y-87110000D02*
X184598571Y-86610000D01*
X186098571Y-86110000D01*
X186027143Y-85681429D02*
X186098571Y-85467143D01*
X186098571Y-85110000D01*
X186027143Y-84967143D01*
X185955714Y-84895714D01*
X185812857Y-84824286D01*
X185670000Y-84824286D01*
X185527143Y-84895714D01*
X185455714Y-84967143D01*
X185384286Y-85110000D01*
X185312857Y-85395714D01*
X185241429Y-85538572D01*
X185170000Y-85610000D01*
X185027143Y-85681429D01*
X184884286Y-85681429D01*
X184741429Y-85610000D01*
X184670000Y-85538572D01*
X184598571Y-85395714D01*
X184598571Y-85038572D01*
X184670000Y-84824286D01*
X186098571Y-84181429D02*
X184598571Y-84181429D01*
X185312857Y-84181429D02*
X185312857Y-83324286D01*
X186098571Y-83324286D02*
X184598571Y-83324286D01*
D12*
X149860000Y-104140000D02*
X149860000Y-121920000D01*
X172720000Y-104140000D02*
X149860000Y-104140000D01*
X172720000Y-121920000D02*
X172720000Y-104140000D01*
X149860000Y-121920000D02*
X172720000Y-121920000D01*
D11*
X159423571Y-117331428D02*
X157923571Y-117331428D01*
X158995000Y-116831428D01*
X157923571Y-116331428D01*
X159423571Y-116331428D01*
X159423571Y-115617142D02*
X157923571Y-115617142D01*
X157923571Y-115045714D01*
X157995000Y-114902856D01*
X158066429Y-114831428D01*
X158209286Y-114759999D01*
X158423571Y-114759999D01*
X158566429Y-114831428D01*
X158637857Y-114902856D01*
X158709286Y-115045714D01*
X158709286Y-115617142D01*
X159423571Y-113331428D02*
X159423571Y-114188571D01*
X159423571Y-113759999D02*
X157923571Y-113759999D01*
X158137857Y-113902856D01*
X158280714Y-114045714D01*
X158352143Y-114188571D01*
X157923571Y-111974285D02*
X157923571Y-112688571D01*
X158637857Y-112760000D01*
X158566429Y-112688571D01*
X158495000Y-112545714D01*
X158495000Y-112188571D01*
X158566429Y-112045714D01*
X158637857Y-111974285D01*
X158780714Y-111902857D01*
X159137857Y-111902857D01*
X159280714Y-111974285D01*
X159352143Y-112045714D01*
X159423571Y-112188571D01*
X159423571Y-112545714D01*
X159352143Y-112688571D01*
X159280714Y-112760000D01*
X158566429Y-111045714D02*
X158495000Y-111188572D01*
X158423571Y-111260000D01*
X158280714Y-111331429D01*
X158209286Y-111331429D01*
X158066429Y-111260000D01*
X157995000Y-111188572D01*
X157923571Y-111045714D01*
X157923571Y-110760000D01*
X157995000Y-110617143D01*
X158066429Y-110545714D01*
X158209286Y-110474286D01*
X158280714Y-110474286D01*
X158423571Y-110545714D01*
X158495000Y-110617143D01*
X158566429Y-110760000D01*
X158566429Y-111045714D01*
X158637857Y-111188572D01*
X158709286Y-111260000D01*
X158852143Y-111331429D01*
X159137857Y-111331429D01*
X159280714Y-111260000D01*
X159352143Y-111188572D01*
X159423571Y-111045714D01*
X159423571Y-110760000D01*
X159352143Y-110617143D01*
X159280714Y-110545714D01*
X159137857Y-110474286D01*
X158852143Y-110474286D01*
X158709286Y-110545714D01*
X158637857Y-110617143D01*
X158566429Y-110760000D01*
X158423571Y-109188572D02*
X159423571Y-109188572D01*
X157852143Y-109545715D02*
X158923571Y-109902858D01*
X158923571Y-108974286D01*
X158637857Y-108402858D02*
X158637857Y-107902858D01*
X159423571Y-107688572D02*
X159423571Y-108402858D01*
X157923571Y-108402858D01*
X157923571Y-107688572D01*
X159423571Y-107045715D02*
X157923571Y-107045715D01*
X159423571Y-106188572D01*
X157923571Y-106188572D01*
X161973571Y-117259999D02*
X160473571Y-117259999D01*
X160473571Y-116902856D01*
X160545000Y-116688571D01*
X160687857Y-116545713D01*
X160830714Y-116474285D01*
X161116429Y-116402856D01*
X161330714Y-116402856D01*
X161616429Y-116474285D01*
X161759286Y-116545713D01*
X161902143Y-116688571D01*
X161973571Y-116902856D01*
X161973571Y-117259999D01*
X161830714Y-114902856D02*
X161902143Y-114974285D01*
X161973571Y-115188571D01*
X161973571Y-115331428D01*
X161902143Y-115545713D01*
X161759286Y-115688571D01*
X161616429Y-115759999D01*
X161330714Y-115831428D01*
X161116429Y-115831428D01*
X160830714Y-115759999D01*
X160687857Y-115688571D01*
X160545000Y-115545713D01*
X160473571Y-115331428D01*
X160473571Y-115188571D01*
X160545000Y-114974285D01*
X160616429Y-114902856D01*
X161402143Y-114259999D02*
X161402143Y-113117142D01*
X161973571Y-112402856D02*
X160473571Y-112402856D01*
X160473571Y-112045713D01*
X160545000Y-111831428D01*
X160687857Y-111688570D01*
X160830714Y-111617142D01*
X161116429Y-111545713D01*
X161330714Y-111545713D01*
X161616429Y-111617142D01*
X161759286Y-111688570D01*
X161902143Y-111831428D01*
X161973571Y-112045713D01*
X161973571Y-112402856D01*
X161830714Y-110045713D02*
X161902143Y-110117142D01*
X161973571Y-110331428D01*
X161973571Y-110474285D01*
X161902143Y-110688570D01*
X161759286Y-110831428D01*
X161616429Y-110902856D01*
X161330714Y-110974285D01*
X161116429Y-110974285D01*
X160830714Y-110902856D01*
X160687857Y-110831428D01*
X160545000Y-110688570D01*
X160473571Y-110474285D01*
X160473571Y-110331428D01*
X160545000Y-110117142D01*
X160616429Y-110045713D01*
X160473571Y-108402856D02*
X160473571Y-107474285D01*
X161045000Y-107974285D01*
X161045000Y-107759999D01*
X161116429Y-107617142D01*
X161187857Y-107545713D01*
X161330714Y-107474285D01*
X161687857Y-107474285D01*
X161830714Y-107545713D01*
X161902143Y-107617142D01*
X161973571Y-107759999D01*
X161973571Y-108188571D01*
X161902143Y-108331428D01*
X161830714Y-108402856D01*
X161545000Y-106902857D02*
X161545000Y-106188571D01*
X161973571Y-107045714D02*
X160473571Y-106545714D01*
X161973571Y-106045714D01*
X142199286Y-120010001D02*
X142913571Y-120010001D01*
X141413571Y-120510001D02*
X142199286Y-120010001D01*
X141413571Y-119510001D01*
X142913571Y-118367144D02*
X142127857Y-118367144D01*
X141985000Y-118438573D01*
X141913571Y-118581430D01*
X141913571Y-118867144D01*
X141985000Y-119010001D01*
X142842143Y-118367144D02*
X142913571Y-118510001D01*
X142913571Y-118867144D01*
X142842143Y-119010001D01*
X142699286Y-119081430D01*
X142556429Y-119081430D01*
X142413571Y-119010001D01*
X142342143Y-118867144D01*
X142342143Y-118510001D01*
X142270714Y-118367144D01*
X142913571Y-117652858D02*
X141913571Y-117652858D01*
X142056429Y-117652858D02*
X141985000Y-117581430D01*
X141913571Y-117438572D01*
X141913571Y-117224287D01*
X141985000Y-117081430D01*
X142127857Y-117010001D01*
X142913571Y-117010001D01*
X142127857Y-117010001D02*
X141985000Y-116938572D01*
X141913571Y-116795715D01*
X141913571Y-116581430D01*
X141985000Y-116438572D01*
X142127857Y-116367144D01*
X142913571Y-116367144D01*
X142913571Y-115010001D02*
X142127857Y-115010001D01*
X141985000Y-115081430D01*
X141913571Y-115224287D01*
X141913571Y-115510001D01*
X141985000Y-115652858D01*
X142842143Y-115010001D02*
X142913571Y-115152858D01*
X142913571Y-115510001D01*
X142842143Y-115652858D01*
X142699286Y-115724287D01*
X142556429Y-115724287D01*
X142413571Y-115652858D01*
X142342143Y-115510001D01*
X142342143Y-115152858D01*
X142270714Y-115010001D01*
X142913571Y-114295715D02*
X141413571Y-114295715D01*
X142342143Y-114152858D02*
X142913571Y-113724287D01*
X141913571Y-113724287D02*
X142485000Y-114295715D01*
X142913571Y-112438572D02*
X142127857Y-112438572D01*
X141985000Y-112510001D01*
X141913571Y-112652858D01*
X141913571Y-112938572D01*
X141985000Y-113081429D01*
X142842143Y-112438572D02*
X142913571Y-112581429D01*
X142913571Y-112938572D01*
X142842143Y-113081429D01*
X142699286Y-113152858D01*
X142556429Y-113152858D01*
X142413571Y-113081429D01*
X142342143Y-112938572D01*
X142342143Y-112581429D01*
X142270714Y-112438572D01*
X141913571Y-111724286D02*
X143199286Y-111724286D01*
X143342143Y-111795715D01*
X143413571Y-111938572D01*
X143413571Y-112010000D01*
X141413571Y-111724286D02*
X141485000Y-111795715D01*
X141556429Y-111724286D01*
X141485000Y-111652858D01*
X141413571Y-111724286D01*
X141556429Y-111724286D01*
X142913571Y-110367143D02*
X142127857Y-110367143D01*
X141985000Y-110438572D01*
X141913571Y-110581429D01*
X141913571Y-110867143D01*
X141985000Y-111010000D01*
X142842143Y-110367143D02*
X142913571Y-110510000D01*
X142913571Y-110867143D01*
X142842143Y-111010000D01*
X142699286Y-111081429D01*
X142556429Y-111081429D01*
X142413571Y-111010000D01*
X142342143Y-110867143D01*
X142342143Y-110510000D01*
X142270714Y-110367143D01*
X141413571Y-109581429D02*
X141699286Y-109724286D01*
X142842143Y-109010000D02*
X142913571Y-108867143D01*
X142913571Y-108581428D01*
X142842143Y-108438571D01*
X142699286Y-108367143D01*
X142627857Y-108367143D01*
X142485000Y-108438571D01*
X142413571Y-108581428D01*
X142413571Y-108795714D01*
X142342143Y-108938571D01*
X142199286Y-109010000D01*
X142127857Y-109010000D01*
X141985000Y-108938571D01*
X141913571Y-108795714D01*
X141913571Y-108581428D01*
X141985000Y-108438571D01*
X142913571Y-105867142D02*
X142913571Y-106581428D01*
X141413571Y-106581428D01*
X142127857Y-105367142D02*
X142127857Y-104867142D01*
X142913571Y-104652856D02*
X142913571Y-105367142D01*
X141413571Y-105367142D01*
X141413571Y-104652856D01*
X142913571Y-104009999D02*
X141413571Y-104009999D01*
X141413571Y-103652856D01*
X141485000Y-103438571D01*
X141627857Y-103295713D01*
X141770714Y-103224285D01*
X142056429Y-103152856D01*
X142270714Y-103152856D01*
X142556429Y-103224285D01*
X142699286Y-103295713D01*
X142842143Y-103438571D01*
X142913571Y-103652856D01*
X142913571Y-104009999D01*
X145320714Y-119474284D02*
X145392143Y-119545713D01*
X145463571Y-119759999D01*
X145463571Y-119902856D01*
X145392143Y-120117141D01*
X145249286Y-120259999D01*
X145106429Y-120331427D01*
X144820714Y-120402856D01*
X144606429Y-120402856D01*
X144320714Y-120331427D01*
X144177857Y-120259999D01*
X144035000Y-120117141D01*
X143963571Y-119902856D01*
X143963571Y-119759999D01*
X144035000Y-119545713D01*
X144106429Y-119474284D01*
X145463571Y-118617141D02*
X145392143Y-118759999D01*
X145320714Y-118831427D01*
X145177857Y-118902856D01*
X144749286Y-118902856D01*
X144606429Y-118831427D01*
X144535000Y-118759999D01*
X144463571Y-118617141D01*
X144463571Y-118402856D01*
X144535000Y-118259999D01*
X144606429Y-118188570D01*
X144749286Y-118117141D01*
X145177857Y-118117141D01*
X145320714Y-118188570D01*
X145392143Y-118259999D01*
X145463571Y-118402856D01*
X145463571Y-118617141D01*
X144463571Y-117474284D02*
X145463571Y-117474284D01*
X144606429Y-117474284D02*
X144535000Y-117402856D01*
X144463571Y-117259998D01*
X144463571Y-117045713D01*
X144535000Y-116902856D01*
X144677857Y-116831427D01*
X145463571Y-116831427D01*
X144463571Y-116331427D02*
X144463571Y-115759998D01*
X143963571Y-116117141D02*
X145249286Y-116117141D01*
X145392143Y-116045713D01*
X145463571Y-115902855D01*
X145463571Y-115759998D01*
X145463571Y-115259998D02*
X144463571Y-115259998D01*
X144749286Y-115259998D02*
X144606429Y-115188570D01*
X144535000Y-115117141D01*
X144463571Y-114974284D01*
X144463571Y-114831427D01*
X145463571Y-114117141D02*
X145392143Y-114259999D01*
X145320714Y-114331427D01*
X145177857Y-114402856D01*
X144749286Y-114402856D01*
X144606429Y-114331427D01*
X144535000Y-114259999D01*
X144463571Y-114117141D01*
X144463571Y-113902856D01*
X144535000Y-113759999D01*
X144606429Y-113688570D01*
X144749286Y-113617141D01*
X145177857Y-113617141D01*
X145320714Y-113688570D01*
X145392143Y-113759999D01*
X145463571Y-113902856D01*
X145463571Y-114117141D01*
X145463571Y-112759998D02*
X145392143Y-112902856D01*
X145249286Y-112974284D01*
X143963571Y-112974284D01*
X145463571Y-111974284D02*
X145392143Y-112117142D01*
X145249286Y-112188570D01*
X143963571Y-112188570D01*
X145392143Y-110831428D02*
X145463571Y-110974285D01*
X145463571Y-111259999D01*
X145392143Y-111402856D01*
X145249286Y-111474285D01*
X144677857Y-111474285D01*
X144535000Y-111402856D01*
X144463571Y-111259999D01*
X144463571Y-110974285D01*
X144535000Y-110831428D01*
X144677857Y-110759999D01*
X144820714Y-110759999D01*
X144963571Y-111474285D01*
X145463571Y-110117142D02*
X144463571Y-110117142D01*
X144749286Y-110117142D02*
X144606429Y-110045714D01*
X144535000Y-109974285D01*
X144463571Y-109831428D01*
X144463571Y-109688571D01*
X144892143Y-108045714D02*
X144892143Y-106902857D01*
X144463571Y-105188571D02*
X145463571Y-104831428D01*
X144463571Y-104474286D01*
X145463571Y-103117143D02*
X145463571Y-103974286D01*
X145463571Y-103545714D02*
X143963571Y-103545714D01*
X144177857Y-103688571D01*
X144320714Y-103831429D01*
X144392143Y-103974286D01*
D13*
X172399000Y-104715000D02*
X169739000Y-104715000D01*
X172399000Y-107315000D02*
X172399000Y-104715000D01*
X169739000Y-107315000D02*
X169739000Y-104715000D01*
X172399000Y-107315000D02*
X169739000Y-107315000D01*
X172399000Y-108585000D02*
X172399000Y-109915000D01*
X172399000Y-109915000D02*
X171069000Y-109915000D01*
X172399000Y-115891000D02*
X169739000Y-115891000D01*
X172399000Y-118491000D02*
X172399000Y-115891000D01*
X169739000Y-118491000D02*
X169739000Y-115891000D01*
X172399000Y-118491000D02*
X169739000Y-118491000D01*
X172399000Y-119761000D02*
X172399000Y-121091000D01*
X172399000Y-121091000D02*
X171069000Y-121091000D01*
X153857000Y-104715000D02*
X151197000Y-104715000D01*
X153857000Y-107315000D02*
X153857000Y-104715000D01*
X151197000Y-107315000D02*
X151197000Y-104715000D01*
X153857000Y-107315000D02*
X151197000Y-107315000D01*
X153857000Y-108585000D02*
X153857000Y-109915000D01*
X153857000Y-109915000D02*
X152527000Y-109915000D01*
X153857000Y-115891000D02*
X151197000Y-115891000D01*
X153857000Y-118491000D02*
X153857000Y-115891000D01*
X151197000Y-118491000D02*
X151197000Y-115891000D01*
X153857000Y-118491000D02*
X151197000Y-118491000D01*
X153857000Y-119761000D02*
X153857000Y-121091000D01*
X153857000Y-121091000D02*
X152527000Y-121091000D01*
X190500000Y-101600000D02*
X190500000Y-111760000D01*
X191770000Y-101600000D02*
X184150000Y-101600000D01*
X184150000Y-101600000D02*
X184150000Y-111760000D01*
X184150000Y-111760000D02*
X191770000Y-111760000D01*
X191770000Y-111760000D02*
X191770000Y-101600000D01*
X176530000Y-121920000D02*
X176530000Y-114300000D01*
X191770000Y-121920000D02*
X191770000Y-114300000D01*
X176530000Y-120650000D02*
X191770000Y-120650000D01*
X176530000Y-114300000D02*
X191770000Y-114300000D01*
X176530000Y-121920000D02*
X191770000Y-121920000D01*
X175260000Y-78800000D02*
X188020000Y-78800000D01*
X188020000Y-78800000D02*
X188020000Y-76140000D01*
X188020000Y-76140000D02*
X175260000Y-76140000D01*
X175260000Y-76140000D02*
X175260000Y-78800000D01*
X173990000Y-78800000D02*
X172660000Y-78800000D01*
X172660000Y-78800000D02*
X172660000Y-77470000D01*
X141570000Y-87920000D02*
X141570000Y-87590000D01*
X141570000Y-87590000D02*
X147990000Y-87590000D01*
X147990000Y-87590000D02*
X147990000Y-87920000D01*
X141570000Y-89880000D02*
X141570000Y-90210000D01*
X141570000Y-90210000D02*
X147990000Y-90210000D01*
X147990000Y-90210000D02*
X147990000Y-89880000D01*
X175550000Y-99730000D02*
X175220000Y-99730000D01*
X175220000Y-99730000D02*
X175220000Y-93310000D01*
X175220000Y-93310000D02*
X175550000Y-93310000D01*
X177510000Y-99730000D02*
X177840000Y-99730000D01*
X177840000Y-99730000D02*
X177840000Y-93310000D01*
X177840000Y-93310000D02*
X177510000Y-93310000D01*
X188250000Y-94650000D02*
X187920000Y-94650000D01*
X187920000Y-94650000D02*
X187920000Y-88230000D01*
X187920000Y-88230000D02*
X188250000Y-88230000D01*
X190210000Y-94650000D02*
X190540000Y-94650000D01*
X190540000Y-94650000D02*
X190540000Y-88230000D01*
X190540000Y-88230000D02*
X190210000Y-88230000D01*
X147990000Y-96230000D02*
X147990000Y-96560000D01*
X147990000Y-96560000D02*
X141570000Y-96560000D01*
X141570000Y-96560000D02*
X141570000Y-96230000D01*
X147990000Y-94270000D02*
X147990000Y-93940000D01*
X147990000Y-93940000D02*
X141570000Y-93940000D01*
X141570000Y-93940000D02*
X141570000Y-94270000D01*
X141970000Y-84240000D02*
X146470000Y-84240000D01*
X140720000Y-80240000D02*
X140720000Y-81740000D01*
X146470000Y-77740000D02*
X141970000Y-77740000D01*
X147720000Y-81740000D02*
X147720000Y-80240000D01*
X181880000Y-83400000D02*
X177380000Y-83400000D01*
X183130000Y-87400000D02*
X183130000Y-85900000D01*
X177380000Y-89900000D02*
X181880000Y-89900000D01*
X176130000Y-85900000D02*
X176130000Y-87400000D01*
D14*
X153924000Y-99949000D02*
X153924000Y-100711000D01*
X153924000Y-100711000D02*
X169926000Y-100711000D01*
X169926000Y-100711000D02*
X169926000Y-99949000D01*
D13*
X180630000Y-99730000D02*
X180300000Y-99730000D01*
X180300000Y-99730000D02*
X180300000Y-93310000D01*
X180300000Y-93310000D02*
X180630000Y-93310000D01*
X182590000Y-99730000D02*
X182920000Y-99730000D01*
X182920000Y-99730000D02*
X182920000Y-93310000D01*
X182920000Y-93310000D02*
X182590000Y-93310000D01*
D15*
X170735667Y-110367381D02*
X170735667Y-111081667D01*
X170688047Y-111224524D01*
X170592809Y-111319762D01*
X170449952Y-111367381D01*
X170354714Y-111367381D01*
X171735667Y-111367381D02*
X171164238Y-111367381D01*
X171449952Y-111367381D02*
X171449952Y-110367381D01*
X171354714Y-110510238D01*
X171259476Y-110605476D01*
X171164238Y-110653095D01*
X170735667Y-121543381D02*
X170735667Y-122257667D01*
X170688047Y-122400524D01*
X170592809Y-122495762D01*
X170449952Y-122543381D01*
X170354714Y-122543381D01*
X171164238Y-121638619D02*
X171211857Y-121591000D01*
X171307095Y-121543381D01*
X171545191Y-121543381D01*
X171640429Y-121591000D01*
X171688048Y-121638619D01*
X171735667Y-121733857D01*
X171735667Y-121829095D01*
X171688048Y-121971952D01*
X171116619Y-122543381D01*
X171735667Y-122543381D01*
X152193667Y-110367381D02*
X152193667Y-111081667D01*
X152146047Y-111224524D01*
X152050809Y-111319762D01*
X151907952Y-111367381D01*
X151812714Y-111367381D01*
X152574619Y-110367381D02*
X153193667Y-110367381D01*
X152860333Y-110748333D01*
X153003191Y-110748333D01*
X153098429Y-110795952D01*
X153146048Y-110843571D01*
X153193667Y-110938810D01*
X153193667Y-111176905D01*
X153146048Y-111272143D01*
X153098429Y-111319762D01*
X153003191Y-111367381D01*
X152717476Y-111367381D01*
X152622238Y-111319762D01*
X152574619Y-111272143D01*
X152193667Y-121543381D02*
X152193667Y-122257667D01*
X152146047Y-122400524D01*
X152050809Y-122495762D01*
X151907952Y-122543381D01*
X151812714Y-122543381D01*
X153098429Y-121876714D02*
X153098429Y-122543381D01*
X152860333Y-121495762D02*
X152622238Y-122210048D01*
X153241286Y-122210048D01*
X182332381Y-107013333D02*
X183046667Y-107013333D01*
X183189524Y-107060953D01*
X183284762Y-107156191D01*
X183332381Y-107299048D01*
X183332381Y-107394286D01*
X182332381Y-106060952D02*
X182332381Y-106537143D01*
X182808571Y-106584762D01*
X182760952Y-106537143D01*
X182713333Y-106441905D01*
X182713333Y-106203809D01*
X182760952Y-106108571D01*
X182808571Y-106060952D01*
X182903810Y-106013333D01*
X183141905Y-106013333D01*
X183237143Y-106060952D01*
X183284762Y-106108571D01*
X183332381Y-106203809D01*
X183332381Y-106441905D01*
X183284762Y-106537143D01*
X183237143Y-106584762D01*
X183786667Y-112912381D02*
X183786667Y-113626667D01*
X183739047Y-113769524D01*
X183643809Y-113864762D01*
X183500952Y-113912381D01*
X183405714Y-113912381D01*
X184691429Y-112912381D02*
X184500952Y-112912381D01*
X184405714Y-112960000D01*
X184358095Y-113007619D01*
X184262857Y-113150476D01*
X184215238Y-113340952D01*
X184215238Y-113721905D01*
X184262857Y-113817143D01*
X184310476Y-113864762D01*
X184405714Y-113912381D01*
X184596191Y-113912381D01*
X184691429Y-113864762D01*
X184739048Y-113817143D01*
X184786667Y-113721905D01*
X184786667Y-113483810D01*
X184739048Y-113388571D01*
X184691429Y-113340952D01*
X184596191Y-113293333D01*
X184405714Y-113293333D01*
X184310476Y-113340952D01*
X184262857Y-113388571D01*
X184215238Y-113483810D01*
X171112381Y-77803333D02*
X171826667Y-77803333D01*
X171969524Y-77850953D01*
X172064762Y-77946191D01*
X172112381Y-78089048D01*
X172112381Y-78184286D01*
X171112381Y-77422381D02*
X171112381Y-76755714D01*
X172112381Y-77184286D01*
X144613334Y-87042381D02*
X144280000Y-86566190D01*
X144041905Y-87042381D02*
X144041905Y-86042381D01*
X144422858Y-86042381D01*
X144518096Y-86090000D01*
X144565715Y-86137619D01*
X144613334Y-86232857D01*
X144613334Y-86375714D01*
X144565715Y-86470952D01*
X144518096Y-86518571D01*
X144422858Y-86566190D01*
X144041905Y-86566190D01*
X145565715Y-87042381D02*
X144994286Y-87042381D01*
X145280000Y-87042381D02*
X145280000Y-86042381D01*
X145184762Y-86185238D01*
X145089524Y-86280476D01*
X144994286Y-86328095D01*
X174672381Y-96686666D02*
X174196190Y-97020000D01*
X174672381Y-97258095D02*
X173672381Y-97258095D01*
X173672381Y-96877142D01*
X173720000Y-96781904D01*
X173767619Y-96734285D01*
X173862857Y-96686666D01*
X174005714Y-96686666D01*
X174100952Y-96734285D01*
X174148571Y-96781904D01*
X174196190Y-96877142D01*
X174196190Y-97258095D01*
X173767619Y-96305714D02*
X173720000Y-96258095D01*
X173672381Y-96162857D01*
X173672381Y-95924761D01*
X173720000Y-95829523D01*
X173767619Y-95781904D01*
X173862857Y-95734285D01*
X173958095Y-95734285D01*
X174100952Y-95781904D01*
X174672381Y-96353333D01*
X174672381Y-95734285D01*
X187372381Y-91606666D02*
X186896190Y-91940000D01*
X187372381Y-92178095D02*
X186372381Y-92178095D01*
X186372381Y-91797142D01*
X186420000Y-91701904D01*
X186467619Y-91654285D01*
X186562857Y-91606666D01*
X186705714Y-91606666D01*
X186800952Y-91654285D01*
X186848571Y-91701904D01*
X186896190Y-91797142D01*
X186896190Y-92178095D01*
X186372381Y-91273333D02*
X186372381Y-90654285D01*
X186753333Y-90987619D01*
X186753333Y-90844761D01*
X186800952Y-90749523D01*
X186848571Y-90701904D01*
X186943810Y-90654285D01*
X187181905Y-90654285D01*
X187277143Y-90701904D01*
X187324762Y-90749523D01*
X187372381Y-90844761D01*
X187372381Y-91130476D01*
X187324762Y-91225714D01*
X187277143Y-91273333D01*
X144613334Y-98012381D02*
X144280000Y-97536190D01*
X144041905Y-98012381D02*
X144041905Y-97012381D01*
X144422858Y-97012381D01*
X144518096Y-97060000D01*
X144565715Y-97107619D01*
X144613334Y-97202857D01*
X144613334Y-97345714D01*
X144565715Y-97440952D01*
X144518096Y-97488571D01*
X144422858Y-97536190D01*
X144041905Y-97536190D01*
X145470477Y-97345714D02*
X145470477Y-98012381D01*
X145232381Y-96964762D02*
X144994286Y-97679048D01*
X145613334Y-97679048D01*
X143458095Y-77144762D02*
X143600952Y-77192381D01*
X143839048Y-77192381D01*
X143934286Y-77144762D01*
X143981905Y-77097143D01*
X144029524Y-77001905D01*
X144029524Y-76906667D01*
X143981905Y-76811429D01*
X143934286Y-76763810D01*
X143839048Y-76716190D01*
X143648571Y-76668571D01*
X143553333Y-76620952D01*
X143505714Y-76573333D01*
X143458095Y-76478095D01*
X143458095Y-76382857D01*
X143505714Y-76287619D01*
X143553333Y-76240000D01*
X143648571Y-76192381D01*
X143886667Y-76192381D01*
X144029524Y-76240000D01*
X144981905Y-77192381D02*
X144410476Y-77192381D01*
X144696190Y-77192381D02*
X144696190Y-76192381D01*
X144600952Y-76335238D01*
X144505714Y-76430476D01*
X144410476Y-76478095D01*
X178868095Y-91304762D02*
X179010952Y-91352381D01*
X179249048Y-91352381D01*
X179344286Y-91304762D01*
X179391905Y-91257143D01*
X179439524Y-91161905D01*
X179439524Y-91066667D01*
X179391905Y-90971429D01*
X179344286Y-90923810D01*
X179249048Y-90876190D01*
X179058571Y-90828571D01*
X178963333Y-90780952D01*
X178915714Y-90733333D01*
X178868095Y-90638095D01*
X178868095Y-90542857D01*
X178915714Y-90447619D01*
X178963333Y-90400000D01*
X179058571Y-90352381D01*
X179296667Y-90352381D01*
X179439524Y-90400000D01*
X179820476Y-90447619D02*
X179868095Y-90400000D01*
X179963333Y-90352381D01*
X180201429Y-90352381D01*
X180296667Y-90400000D01*
X180344286Y-90447619D01*
X180391905Y-90542857D01*
X180391905Y-90638095D01*
X180344286Y-90780952D01*
X179772857Y-91352381D01*
X180391905Y-91352381D01*
X160528095Y-87082381D02*
X160528095Y-87891905D01*
X160575714Y-87987143D01*
X160623333Y-88034762D01*
X160718571Y-88082381D01*
X160909048Y-88082381D01*
X161004286Y-88034762D01*
X161051905Y-87987143D01*
X161099524Y-87891905D01*
X161099524Y-87082381D01*
X162099524Y-88082381D02*
X161528095Y-88082381D01*
X161813809Y-88082381D02*
X161813809Y-87082381D01*
X161718571Y-87225238D01*
X161623333Y-87320476D01*
X161528095Y-87368095D01*
X179752381Y-96686666D02*
X179276190Y-97020000D01*
X179752381Y-97258095D02*
X178752381Y-97258095D01*
X178752381Y-96877142D01*
X178800000Y-96781904D01*
X178847619Y-96734285D01*
X178942857Y-96686666D01*
X179085714Y-96686666D01*
X179180952Y-96734285D01*
X179228571Y-96781904D01*
X179276190Y-96877142D01*
X179276190Y-97258095D01*
X178752381Y-95781904D02*
X178752381Y-96258095D01*
X179228571Y-96305714D01*
X179180952Y-96258095D01*
X179133333Y-96162857D01*
X179133333Y-95924761D01*
X179180952Y-95829523D01*
X179228571Y-95781904D01*
X179323810Y-95734285D01*
X179561905Y-95734285D01*
X179657143Y-95781904D01*
X179704762Y-95829523D01*
X179752381Y-95924761D01*
X179752381Y-96162857D01*
X179704762Y-96258095D01*
X179657143Y-96305714D01*
M02*
