M48
;DRILL file {KiCad 4.0.7} date Wed Mar 28 14:10:40 2018
;FORMAT={-:-/ absolute / inch / decimal}
FMAT,2
INCH,TZ
T1C0.016
T2C0.026
T3C0.031
T4C0.039
T5C0.043
T6C0.060
%
G90
G05
M72
T1
X6.1Y-4.1
X6.9Y-4.
X7.2Y-4.45
X7.45Y-3.9
T2
X6.1Y-3.35
X6.1Y-3.4287
X6.1Y-3.5075
X6.1Y-3.5862
X6.1Y-3.665
X6.1Y-3.7437
X6.1Y-3.8224
X6.1Y-3.9012
X6.1783Y-3.9406
X6.2571Y-3.9406
X6.3358Y-3.9406
X6.4146Y-3.9406
X6.4933Y-3.9406
X6.572Y-3.9406
X6.6512Y-3.35
X6.6512Y-3.4287
X6.6512Y-3.5075
X6.6512Y-3.5862
X6.6512Y-3.665
X6.6512Y-3.7437
X6.6512Y-3.8224
X6.6512Y-3.9012
T3
X5.55Y-3.5
X5.55Y-3.75
X5.85Y-3.5
X5.85Y-3.75
X6.95Y-3.65
X6.95Y-3.95
X7.15Y-3.65
X7.15Y-3.95
X7.45Y-3.45
X7.45Y-3.75
T4
X6.005Y-4.175
X6.005Y-4.275
X6.005Y-4.615
X6.005Y-4.715
X6.735Y-4.175
X6.735Y-4.275
X6.735Y-4.615
X6.735Y-4.715
X6.85Y-3.05
X6.95Y-3.05
X7.05Y-3.05
X7.15Y-3.05
X7.25Y-3.05
X7.35Y-3.05
T5
X5.55Y-3.1
X5.55Y-3.2772
X5.8059Y-3.1
X5.8059Y-3.2772
X6.9441Y-3.3228
X6.9441Y-3.5
X7.2Y-3.3228
X7.2Y-3.5
T6
X7.05Y-4.65
X7.25Y-4.65
X7.4Y-4.1
X7.4Y-4.3
X7.45Y-4.65
T0
M30
