%TF.GenerationSoftware,KiCad,Pcbnew,4.0.7*%
%TF.CreationDate,2018-03-28T14:10:15+02:00*%
%TF.ProjectId,esp8266-ws2811-pcb,657370383236362D7773323831312D70,rev?*%
%TF.FileFunction,Copper,L1,Top,Signal*%
%FSLAX46Y46*%
G04 Gerber Fmt 4.6, Leading zero omitted, Abs format (unit mm)*
G04 Created by KiCad (PCBNEW 4.0.7) date Wed Mar 28 14:10:15 2018*
%MOMM*%
%LPD*%
G01*
G04 APERTURE LIST*
%ADD10C,0.100000*%
%ADD11R,1.700000X1.700000*%
%ADD12O,1.700000X1.700000*%
%ADD13R,3.000000X3.000000*%
%ADD14C,3.000000*%
%ADD15C,1.600000*%
%ADD16O,1.600000X1.600000*%
%ADD17C,2.000000*%
%ADD18R,2.500000X1.100000*%
%ADD19O,2.500000X1.100000*%
%ADD20O,1.100000X2.500000*%
%ADD21C,0.600000*%
%ADD22C,0.250000*%
%ADD23C,1.000000*%
%ADD24C,0.500000*%
%ADD25C,0.254000*%
G04 APERTURE END LIST*
D10*
D11*
X171069000Y-108585000D03*
D12*
X171069000Y-106045000D03*
D11*
X171069000Y-119761000D03*
D12*
X171069000Y-117221000D03*
D11*
X152527000Y-108585000D03*
D12*
X152527000Y-106045000D03*
D11*
X152527000Y-119761000D03*
D12*
X152527000Y-117221000D03*
D13*
X187960000Y-109220000D03*
D14*
X187960000Y-104140000D03*
D13*
X179070000Y-118110000D03*
D14*
X184150000Y-118110000D03*
X189230000Y-118110000D03*
D11*
X173990000Y-77470000D03*
D12*
X176530000Y-77470000D03*
X179070000Y-77470000D03*
X181610000Y-77470000D03*
X184150000Y-77470000D03*
X186690000Y-77470000D03*
D15*
X140970000Y-88900000D03*
D16*
X148590000Y-88900000D03*
D15*
X176530000Y-100330000D03*
D16*
X176530000Y-92710000D03*
D15*
X189230000Y-95250000D03*
D16*
X189230000Y-87630000D03*
D15*
X148590000Y-95250000D03*
D16*
X140970000Y-95250000D03*
D17*
X140970000Y-83240000D03*
X140970000Y-78740000D03*
X147470000Y-83240000D03*
X147470000Y-78740000D03*
X182880000Y-84400000D03*
X182880000Y-88900000D03*
X176380000Y-84400000D03*
X176380000Y-88900000D03*
D18*
X154240000Y-85090000D03*
D19*
X154240000Y-87090000D03*
X154240000Y-89090000D03*
X154240000Y-91090000D03*
X154240000Y-93090000D03*
X154240000Y-95090000D03*
X154240000Y-97090000D03*
X154240000Y-99090000D03*
X169640000Y-99090000D03*
X169540000Y-97090000D03*
X169640000Y-95090000D03*
X169640000Y-93090000D03*
X169640000Y-91090000D03*
X169640000Y-89090000D03*
X169640000Y-87090000D03*
X169640000Y-85090000D03*
D20*
X156930000Y-100790000D03*
X158930000Y-100790000D03*
X160930000Y-100790000D03*
X162930000Y-100790000D03*
X164930000Y-100790000D03*
X166930000Y-100790000D03*
D15*
X181610000Y-100330000D03*
D16*
X181610000Y-92710000D03*
D21*
X182880000Y-113030000D03*
X189230000Y-99060000D03*
X154940000Y-104140000D03*
X175260000Y-101600000D03*
D22*
X168940000Y-97090000D02*
X168940000Y-99090000D01*
X168940000Y-99090000D02*
X168910000Y-99120000D01*
D23*
X168940000Y-99090000D02*
X168910000Y-99120000D01*
D22*
X152527000Y-119761000D02*
X152019000Y-119761000D01*
X173960000Y-77500000D02*
X173990000Y-77470000D01*
X189230000Y-95250000D02*
X189230000Y-99060000D01*
X184150000Y-114300000D02*
X184150000Y-118110000D01*
X182880000Y-113030000D02*
X184150000Y-114300000D01*
X168940000Y-85090000D02*
X171450000Y-85090000D01*
X172720000Y-81280000D02*
X176530000Y-77470000D01*
X172720000Y-83820000D02*
X172720000Y-81280000D01*
X171450000Y-85090000D02*
X172720000Y-83820000D01*
X168940000Y-85090000D02*
X168940000Y-85060000D01*
X181610000Y-77470000D02*
X184150000Y-77470000D01*
X140970000Y-83240000D02*
X147470000Y-83240000D01*
X154940000Y-85090000D02*
X148590000Y-85090000D01*
X148590000Y-88900000D02*
X148590000Y-85090000D01*
X148590000Y-85090000D02*
X148590000Y-84360000D01*
X148590000Y-84360000D02*
X147470000Y-83240000D01*
X168940000Y-93090000D02*
X176150000Y-93090000D01*
X176150000Y-93090000D02*
X176530000Y-92710000D01*
X176380000Y-88900000D02*
X182880000Y-88900000D01*
X176150000Y-93090000D02*
X176380000Y-92860000D01*
X176380000Y-92860000D02*
X176380000Y-88900000D01*
X148590000Y-95250000D02*
X148590000Y-92710000D01*
X152210000Y-89090000D02*
X154940000Y-89090000D01*
X148590000Y-92710000D02*
X152210000Y-89090000D01*
D23*
X171069000Y-106045000D02*
X171069000Y-108585000D01*
X179070000Y-109220000D02*
X179070000Y-118110000D01*
X187960000Y-109220000D02*
X179070000Y-109220000D01*
X179070000Y-109220000D02*
X171704000Y-109220000D01*
X171704000Y-109220000D02*
X171069000Y-108585000D01*
D22*
X168940000Y-87090000D02*
X171990000Y-87090000D01*
X179070000Y-85090000D02*
X179070000Y-77470000D01*
X177800000Y-86360000D02*
X179070000Y-85090000D01*
X172720000Y-86360000D02*
X177800000Y-86360000D01*
X171990000Y-87090000D02*
X172720000Y-86360000D01*
X179070000Y-77470000D02*
X189230000Y-87630000D01*
X170720000Y-87090000D02*
X168940000Y-87090000D01*
X168940000Y-87090000D02*
X170720000Y-87090000D01*
D24*
X152400000Y-99090000D02*
X144810000Y-99090000D01*
X144810000Y-99090000D02*
X140970000Y-95250000D01*
X154940000Y-99090000D02*
X152400000Y-99090000D01*
X152400000Y-99090000D02*
X152430000Y-99090000D01*
X152527000Y-99187000D02*
X152527000Y-106045000D01*
X152430000Y-99090000D02*
X152527000Y-99187000D01*
D22*
X176530000Y-100330000D02*
X175260000Y-101600000D01*
X154940000Y-104140000D02*
X153035000Y-106045000D01*
X153035000Y-106045000D02*
X152527000Y-106045000D01*
X176530000Y-100330000D02*
X181610000Y-100330000D01*
X140970000Y-88900000D02*
X140970000Y-95250000D01*
X151765000Y-107823000D02*
X152527000Y-108585000D01*
X140940000Y-88930000D02*
X140970000Y-88900000D01*
X168940000Y-95090000D02*
X179230000Y-95090000D01*
X179230000Y-95090000D02*
X181610000Y-92710000D01*
D25*
G36*
X193600000Y-122480000D02*
X139140000Y-122480000D01*
X139140000Y-120046750D01*
X151042000Y-120046750D01*
X151042000Y-120737310D01*
X151138673Y-120970699D01*
X151317302Y-121149327D01*
X151550691Y-121246000D01*
X152241250Y-121246000D01*
X152400000Y-121087250D01*
X152400000Y-119888000D01*
X152654000Y-119888000D01*
X152654000Y-121087250D01*
X152812750Y-121246000D01*
X153503309Y-121246000D01*
X153736698Y-121149327D01*
X153915327Y-120970699D01*
X154012000Y-120737310D01*
X154012000Y-120046750D01*
X169584000Y-120046750D01*
X169584000Y-120737310D01*
X169680673Y-120970699D01*
X169859302Y-121149327D01*
X170092691Y-121246000D01*
X170783250Y-121246000D01*
X170942000Y-121087250D01*
X170942000Y-119888000D01*
X171196000Y-119888000D01*
X171196000Y-121087250D01*
X171354750Y-121246000D01*
X172045309Y-121246000D01*
X172278698Y-121149327D01*
X172457327Y-120970699D01*
X172554000Y-120737310D01*
X172554000Y-120046750D01*
X172395250Y-119888000D01*
X171196000Y-119888000D01*
X170942000Y-119888000D01*
X169742750Y-119888000D01*
X169584000Y-120046750D01*
X154012000Y-120046750D01*
X153853250Y-119888000D01*
X152654000Y-119888000D01*
X152400000Y-119888000D01*
X151200750Y-119888000D01*
X151042000Y-120046750D01*
X139140000Y-120046750D01*
X139140000Y-118784690D01*
X151042000Y-118784690D01*
X151042000Y-119475250D01*
X151200750Y-119634000D01*
X152400000Y-119634000D01*
X152400000Y-117348000D01*
X152654000Y-117348000D01*
X152654000Y-119634000D01*
X153853250Y-119634000D01*
X154012000Y-119475250D01*
X154012000Y-118784690D01*
X169584000Y-118784690D01*
X169584000Y-119475250D01*
X169742750Y-119634000D01*
X170942000Y-119634000D01*
X170942000Y-117348000D01*
X171196000Y-117348000D01*
X171196000Y-119634000D01*
X172395250Y-119634000D01*
X172554000Y-119475250D01*
X172554000Y-118784690D01*
X172457327Y-118551301D01*
X172278698Y-118372673D01*
X172069122Y-118285864D01*
X172340645Y-117987924D01*
X172510476Y-117577890D01*
X172389155Y-117348000D01*
X171196000Y-117348000D01*
X170942000Y-117348000D01*
X169748845Y-117348000D01*
X169627524Y-117577890D01*
X169797355Y-117987924D01*
X170068878Y-118285864D01*
X169859302Y-118372673D01*
X169680673Y-118551301D01*
X169584000Y-118784690D01*
X154012000Y-118784690D01*
X153915327Y-118551301D01*
X153736698Y-118372673D01*
X153527122Y-118285864D01*
X153798645Y-117987924D01*
X153968476Y-117577890D01*
X153847155Y-117348000D01*
X152654000Y-117348000D01*
X152400000Y-117348000D01*
X151206845Y-117348000D01*
X151085524Y-117577890D01*
X151255355Y-117987924D01*
X151526878Y-118285864D01*
X151317302Y-118372673D01*
X151138673Y-118551301D01*
X151042000Y-118784690D01*
X139140000Y-118784690D01*
X139140000Y-116864110D01*
X151085524Y-116864110D01*
X151206845Y-117094000D01*
X152400000Y-117094000D01*
X152400000Y-115900181D01*
X152654000Y-115900181D01*
X152654000Y-117094000D01*
X153847155Y-117094000D01*
X153968476Y-116864110D01*
X169627524Y-116864110D01*
X169748845Y-117094000D01*
X170942000Y-117094000D01*
X170942000Y-115900181D01*
X171196000Y-115900181D01*
X171196000Y-117094000D01*
X172389155Y-117094000D01*
X172510476Y-116864110D01*
X172340645Y-116454076D01*
X171950358Y-116025817D01*
X171425892Y-115779514D01*
X171196000Y-115900181D01*
X170942000Y-115900181D01*
X170712108Y-115779514D01*
X170187642Y-116025817D01*
X169797355Y-116454076D01*
X169627524Y-116864110D01*
X153968476Y-116864110D01*
X153798645Y-116454076D01*
X153408358Y-116025817D01*
X152883892Y-115779514D01*
X152654000Y-115900181D01*
X152400000Y-115900181D01*
X152170108Y-115779514D01*
X151645642Y-116025817D01*
X151255355Y-116454076D01*
X151085524Y-116864110D01*
X139140000Y-116864110D01*
X139140000Y-83563795D01*
X139334716Y-83563795D01*
X139583106Y-84164943D01*
X140042637Y-84625278D01*
X140643352Y-84874716D01*
X141293795Y-84875284D01*
X141894943Y-84626894D01*
X142355278Y-84167363D01*
X142424773Y-84000000D01*
X146014953Y-84000000D01*
X146083106Y-84164943D01*
X146542637Y-84625278D01*
X147143352Y-84874716D01*
X147793795Y-84875284D01*
X147830000Y-84860324D01*
X147830000Y-87696333D01*
X147547189Y-87885302D01*
X147236120Y-88350849D01*
X147126887Y-88900000D01*
X147236120Y-89449151D01*
X147547189Y-89914698D01*
X148012736Y-90225767D01*
X148561887Y-90335000D01*
X148618113Y-90335000D01*
X149167264Y-90225767D01*
X149632811Y-89914698D01*
X149943880Y-89449151D01*
X150053113Y-88900000D01*
X149943880Y-88350849D01*
X149632811Y-87885302D01*
X149350000Y-87696333D01*
X149350000Y-85850000D01*
X152382074Y-85850000D01*
X152386838Y-85875317D01*
X152525910Y-86091441D01*
X152713615Y-86219694D01*
X152665149Y-86252078D01*
X152408274Y-86636520D01*
X152318071Y-87090000D01*
X152408274Y-87543480D01*
X152665149Y-87927922D01*
X152907717Y-88090000D01*
X152665149Y-88252078D01*
X152613083Y-88330000D01*
X152210000Y-88330000D01*
X151919161Y-88387852D01*
X151672599Y-88552599D01*
X148052599Y-92172599D01*
X147887852Y-92419161D01*
X147830000Y-92710000D01*
X147830000Y-94011354D01*
X147778200Y-94032757D01*
X147374176Y-94436077D01*
X147155250Y-94963309D01*
X147154752Y-95534187D01*
X147372757Y-96061800D01*
X147776077Y-96465824D01*
X148303309Y-96684750D01*
X148874187Y-96685248D01*
X149401800Y-96467243D01*
X149805824Y-96063923D01*
X150024750Y-95536691D01*
X150025248Y-94965813D01*
X149807243Y-94438200D01*
X149403923Y-94034176D01*
X149350000Y-94011785D01*
X149350000Y-93024802D01*
X152524802Y-89850000D01*
X152613083Y-89850000D01*
X152665149Y-89927922D01*
X152907717Y-90090000D01*
X152665149Y-90252078D01*
X152408274Y-90636520D01*
X152318071Y-91090000D01*
X152408274Y-91543480D01*
X152665149Y-91927922D01*
X152907717Y-92090000D01*
X152665149Y-92252078D01*
X152408274Y-92636520D01*
X152318071Y-93090000D01*
X152408274Y-93543480D01*
X152665149Y-93927922D01*
X152907717Y-94090000D01*
X152665149Y-94252078D01*
X152408274Y-94636520D01*
X152318071Y-95090000D01*
X152408274Y-95543480D01*
X152665149Y-95927922D01*
X152907717Y-96090000D01*
X152665149Y-96252078D01*
X152408274Y-96636520D01*
X152318071Y-97090000D01*
X152408274Y-97543480D01*
X152665149Y-97927922D01*
X152907717Y-98090000D01*
X152735606Y-98205000D01*
X152430005Y-98205000D01*
X152430000Y-98204999D01*
X152429995Y-98205000D01*
X145176579Y-98205000D01*
X142398017Y-95426438D01*
X142433113Y-95250000D01*
X142323880Y-94700849D01*
X142012811Y-94235302D01*
X141730000Y-94046333D01*
X141730000Y-90138646D01*
X141781800Y-90117243D01*
X142185824Y-89713923D01*
X142404750Y-89186691D01*
X142405248Y-88615813D01*
X142187243Y-88088200D01*
X141783923Y-87684176D01*
X141256691Y-87465250D01*
X140685813Y-87464752D01*
X140158200Y-87682757D01*
X139754176Y-88086077D01*
X139535250Y-88613309D01*
X139534752Y-89184187D01*
X139752757Y-89711800D01*
X140156077Y-90115824D01*
X140210000Y-90138215D01*
X140210000Y-94046333D01*
X139927189Y-94235302D01*
X139616120Y-94700849D01*
X139506887Y-95250000D01*
X139616120Y-95799151D01*
X139927189Y-96264698D01*
X140392736Y-96575767D01*
X140941887Y-96685000D01*
X140998113Y-96685000D01*
X141127653Y-96659233D01*
X144184208Y-99715787D01*
X144184210Y-99715790D01*
X144389736Y-99853117D01*
X144471325Y-99907633D01*
X144810000Y-99975001D01*
X144810005Y-99975000D01*
X151642000Y-99975000D01*
X151642000Y-104865221D01*
X151447853Y-104994946D01*
X151125946Y-105476715D01*
X151012907Y-106045000D01*
X151125946Y-106613285D01*
X151447853Y-107095054D01*
X151483641Y-107118966D01*
X151474161Y-107120852D01*
X151464005Y-107127638D01*
X151441683Y-107131838D01*
X151225559Y-107270910D01*
X151080569Y-107483110D01*
X151074021Y-107515446D01*
X151062852Y-107532161D01*
X151005000Y-107823000D01*
X151029560Y-107946470D01*
X151029560Y-109435000D01*
X151073838Y-109670317D01*
X151212910Y-109886441D01*
X151425110Y-110031431D01*
X151677000Y-110082440D01*
X153377000Y-110082440D01*
X153612317Y-110038162D01*
X153828441Y-109899090D01*
X153973431Y-109686890D01*
X154024440Y-109435000D01*
X154024440Y-107735000D01*
X153980162Y-107499683D01*
X153841090Y-107283559D01*
X153628890Y-107138569D01*
X153561459Y-107124914D01*
X153606147Y-107095054D01*
X153928054Y-106613285D01*
X154024032Y-106130770D01*
X154109802Y-106045000D01*
X169554907Y-106045000D01*
X169667946Y-106613285D01*
X169934000Y-107011464D01*
X169934000Y-107163808D01*
X169767559Y-107270910D01*
X169622569Y-107483110D01*
X169571560Y-107735000D01*
X169571560Y-109435000D01*
X169615838Y-109670317D01*
X169754910Y-109886441D01*
X169967110Y-110031431D01*
X170219000Y-110082440D01*
X170991042Y-110082440D01*
X171269655Y-110268604D01*
X171704000Y-110355000D01*
X177935000Y-110355000D01*
X177935000Y-115962560D01*
X177570000Y-115962560D01*
X177334683Y-116006838D01*
X177118559Y-116145910D01*
X176973569Y-116358110D01*
X176922560Y-116610000D01*
X176922560Y-119610000D01*
X176966838Y-119845317D01*
X177105910Y-120061441D01*
X177318110Y-120206431D01*
X177570000Y-120257440D01*
X180570000Y-120257440D01*
X180805317Y-120213162D01*
X181021441Y-120074090D01*
X181166431Y-119861890D01*
X181217440Y-119610000D01*
X181217440Y-116610000D01*
X181173162Y-116374683D01*
X181034090Y-116158559D01*
X180821890Y-116013569D01*
X180570000Y-115962560D01*
X180205000Y-115962560D01*
X180205000Y-113215167D01*
X181944838Y-113215167D01*
X182086883Y-113558943D01*
X182349673Y-113822192D01*
X182693201Y-113964838D01*
X182740077Y-113964879D01*
X183390000Y-114614802D01*
X183390000Y-116113952D01*
X182942200Y-116298980D01*
X182341091Y-116899041D01*
X182015372Y-117683459D01*
X182014630Y-118532815D01*
X182338980Y-119317800D01*
X182939041Y-119918909D01*
X183723459Y-120244628D01*
X184572815Y-120245370D01*
X185357800Y-119921020D01*
X185655368Y-119623970D01*
X187895635Y-119623970D01*
X188055418Y-119942739D01*
X188846187Y-120252723D01*
X189695387Y-120236497D01*
X190404582Y-119942739D01*
X190564365Y-119623970D01*
X189230000Y-118289605D01*
X187895635Y-119623970D01*
X185655368Y-119623970D01*
X185958909Y-119320959D01*
X186284628Y-118536541D01*
X186285335Y-117726187D01*
X187087277Y-117726187D01*
X187103503Y-118575387D01*
X187397261Y-119284582D01*
X187716030Y-119444365D01*
X189050395Y-118110000D01*
X189409605Y-118110000D01*
X190743970Y-119444365D01*
X191062739Y-119284582D01*
X191372723Y-118493813D01*
X191356497Y-117644613D01*
X191062739Y-116935418D01*
X190743970Y-116775635D01*
X189409605Y-118110000D01*
X189050395Y-118110000D01*
X187716030Y-116775635D01*
X187397261Y-116935418D01*
X187087277Y-117726187D01*
X186285335Y-117726187D01*
X186285370Y-117687185D01*
X185961020Y-116902200D01*
X185655384Y-116596030D01*
X187895635Y-116596030D01*
X189230000Y-117930395D01*
X190564365Y-116596030D01*
X190404582Y-116277261D01*
X189613813Y-115967277D01*
X188764613Y-115983503D01*
X188055418Y-116277261D01*
X187895635Y-116596030D01*
X185655384Y-116596030D01*
X185360959Y-116301091D01*
X184910000Y-116113836D01*
X184910000Y-114300000D01*
X184852148Y-114009161D01*
X184852148Y-114009160D01*
X184687401Y-113762599D01*
X183815122Y-112890320D01*
X183815162Y-112844833D01*
X183673117Y-112501057D01*
X183410327Y-112237808D01*
X183066799Y-112095162D01*
X182694833Y-112094838D01*
X182351057Y-112236883D01*
X182087808Y-112499673D01*
X181945162Y-112843201D01*
X181944838Y-113215167D01*
X180205000Y-113215167D01*
X180205000Y-110355000D01*
X185812560Y-110355000D01*
X185812560Y-110720000D01*
X185856838Y-110955317D01*
X185995910Y-111171441D01*
X186208110Y-111316431D01*
X186460000Y-111367440D01*
X189460000Y-111367440D01*
X189695317Y-111323162D01*
X189911441Y-111184090D01*
X190056431Y-110971890D01*
X190107440Y-110720000D01*
X190107440Y-107720000D01*
X190063162Y-107484683D01*
X189924090Y-107268559D01*
X189711890Y-107123569D01*
X189460000Y-107072560D01*
X186460000Y-107072560D01*
X186224683Y-107116838D01*
X186008559Y-107255910D01*
X185863569Y-107468110D01*
X185812560Y-107720000D01*
X185812560Y-108085000D01*
X172566440Y-108085000D01*
X172566440Y-107735000D01*
X172522162Y-107499683D01*
X172383090Y-107283559D01*
X172204000Y-107161192D01*
X172204000Y-107011464D01*
X172470054Y-106613285D01*
X172583093Y-106045000D01*
X172505313Y-105653970D01*
X186625635Y-105653970D01*
X186785418Y-105972739D01*
X187576187Y-106282723D01*
X188425387Y-106266497D01*
X189134582Y-105972739D01*
X189294365Y-105653970D01*
X187960000Y-104319605D01*
X186625635Y-105653970D01*
X172505313Y-105653970D01*
X172470054Y-105476715D01*
X172148147Y-104994946D01*
X171666378Y-104673039D01*
X171098093Y-104560000D01*
X171039907Y-104560000D01*
X170471622Y-104673039D01*
X169989853Y-104994946D01*
X169667946Y-105476715D01*
X169554907Y-106045000D01*
X154109802Y-106045000D01*
X155079680Y-105075122D01*
X155125167Y-105075162D01*
X155468943Y-104933117D01*
X155732192Y-104670327D01*
X155874838Y-104326799D01*
X155875162Y-103954833D01*
X155793084Y-103756187D01*
X185817277Y-103756187D01*
X185833503Y-104605387D01*
X186127261Y-105314582D01*
X186446030Y-105474365D01*
X187780395Y-104140000D01*
X188139605Y-104140000D01*
X189473970Y-105474365D01*
X189792739Y-105314582D01*
X190102723Y-104523813D01*
X190086497Y-103674613D01*
X189792739Y-102965418D01*
X189473970Y-102805635D01*
X188139605Y-104140000D01*
X187780395Y-104140000D01*
X186446030Y-102805635D01*
X186127261Y-102965418D01*
X185817277Y-103756187D01*
X155793084Y-103756187D01*
X155733117Y-103611057D01*
X155470327Y-103347808D01*
X155126799Y-103205162D01*
X154754833Y-103204838D01*
X154411057Y-103346883D01*
X154147808Y-103609673D01*
X154005162Y-103953201D01*
X154005121Y-104000077D01*
X153412000Y-104593198D01*
X153412000Y-100256885D01*
X153503071Y-100275000D01*
X154976929Y-100275000D01*
X155430409Y-100184797D01*
X155763003Y-99962566D01*
X155745000Y-100053071D01*
X155745000Y-101526929D01*
X155835203Y-101980409D01*
X156092078Y-102364851D01*
X156476520Y-102621726D01*
X156930000Y-102711929D01*
X157383480Y-102621726D01*
X157767922Y-102364851D01*
X157930000Y-102122283D01*
X158092078Y-102364851D01*
X158476520Y-102621726D01*
X158930000Y-102711929D01*
X159383480Y-102621726D01*
X159767922Y-102364851D01*
X159930000Y-102122283D01*
X160092078Y-102364851D01*
X160476520Y-102621726D01*
X160930000Y-102711929D01*
X161383480Y-102621726D01*
X161767922Y-102364851D01*
X161930000Y-102122283D01*
X162092078Y-102364851D01*
X162476520Y-102621726D01*
X162930000Y-102711929D01*
X163383480Y-102621726D01*
X163767922Y-102364851D01*
X163930000Y-102122283D01*
X164092078Y-102364851D01*
X164476520Y-102621726D01*
X164930000Y-102711929D01*
X165383480Y-102621726D01*
X165767922Y-102364851D01*
X165930000Y-102122283D01*
X166092078Y-102364851D01*
X166476520Y-102621726D01*
X166930000Y-102711929D01*
X167361842Y-102626030D01*
X186625635Y-102626030D01*
X187960000Y-103960395D01*
X189294365Y-102626030D01*
X189134582Y-102307261D01*
X188343813Y-101997277D01*
X187494613Y-102013503D01*
X186785418Y-102307261D01*
X186625635Y-102626030D01*
X167361842Y-102626030D01*
X167383480Y-102621726D01*
X167767922Y-102364851D01*
X168024797Y-101980409D01*
X168063633Y-101785167D01*
X174324838Y-101785167D01*
X174466883Y-102128943D01*
X174729673Y-102392192D01*
X175073201Y-102534838D01*
X175445167Y-102535162D01*
X175788943Y-102393117D01*
X176052192Y-102130327D01*
X176194838Y-101786799D01*
X176194875Y-101744638D01*
X176243309Y-101764750D01*
X176814187Y-101765248D01*
X177341800Y-101547243D01*
X177745824Y-101143923D01*
X177768215Y-101090000D01*
X180371354Y-101090000D01*
X180392757Y-101141800D01*
X180796077Y-101545824D01*
X181323309Y-101764750D01*
X181894187Y-101765248D01*
X182421800Y-101547243D01*
X182825824Y-101143923D01*
X183044750Y-100616691D01*
X183045248Y-100045813D01*
X182827243Y-99518200D01*
X182423923Y-99114176D01*
X181896691Y-98895250D01*
X181325813Y-98894752D01*
X180798200Y-99112757D01*
X180394176Y-99516077D01*
X180371785Y-99570000D01*
X177768646Y-99570000D01*
X177747243Y-99518200D01*
X177343923Y-99114176D01*
X176816691Y-98895250D01*
X176245813Y-98894752D01*
X175718200Y-99112757D01*
X175314176Y-99516077D01*
X175095250Y-100043309D01*
X175094752Y-100614187D01*
X175115695Y-100664874D01*
X175074833Y-100664838D01*
X174731057Y-100806883D01*
X174467808Y-101069673D01*
X174325162Y-101413201D01*
X174324838Y-101785167D01*
X168063633Y-101785167D01*
X168115000Y-101526929D01*
X168115000Y-100053071D01*
X168084190Y-99898177D01*
X168369187Y-100136196D01*
X168813000Y-100275000D01*
X169513000Y-100275000D01*
X169513000Y-99217000D01*
X169767000Y-99217000D01*
X169767000Y-100275000D01*
X170467000Y-100275000D01*
X170910813Y-100136196D01*
X171267724Y-99838118D01*
X171483398Y-99426146D01*
X171483803Y-99399744D01*
X171358361Y-99217000D01*
X169767000Y-99217000D01*
X169513000Y-99217000D01*
X167921639Y-99217000D01*
X167844371Y-99329564D01*
X167767922Y-99215149D01*
X167383480Y-98958274D01*
X166930000Y-98868071D01*
X166476520Y-98958274D01*
X166092078Y-99215149D01*
X165930000Y-99457717D01*
X165767922Y-99215149D01*
X165383480Y-98958274D01*
X164930000Y-98868071D01*
X164476520Y-98958274D01*
X164092078Y-99215149D01*
X163930000Y-99457717D01*
X163767922Y-99215149D01*
X163383480Y-98958274D01*
X162930000Y-98868071D01*
X162476520Y-98958274D01*
X162092078Y-99215149D01*
X161930000Y-99457717D01*
X161767922Y-99215149D01*
X161383480Y-98958274D01*
X160930000Y-98868071D01*
X160476520Y-98958274D01*
X160092078Y-99215149D01*
X159930000Y-99457717D01*
X159767922Y-99215149D01*
X159383480Y-98958274D01*
X158930000Y-98868071D01*
X158476520Y-98958274D01*
X158092078Y-99215149D01*
X157930000Y-99457717D01*
X157767922Y-99215149D01*
X157383480Y-98958274D01*
X156930000Y-98868071D01*
X156476520Y-98958274D01*
X156143926Y-99180505D01*
X156161929Y-99090000D01*
X156071726Y-98636520D01*
X155814851Y-98252078D01*
X155572283Y-98090000D01*
X155814851Y-97927922D01*
X156071726Y-97543480D01*
X156100316Y-97399744D01*
X167696197Y-97399744D01*
X167696602Y-97426146D01*
X167912276Y-97838118D01*
X168263873Y-98131758D01*
X168012276Y-98341882D01*
X167796602Y-98753854D01*
X167796197Y-98780256D01*
X167921639Y-98963000D01*
X169513000Y-98963000D01*
X169513000Y-97905000D01*
X169413000Y-97905000D01*
X169413000Y-97217000D01*
X169667000Y-97217000D01*
X169667000Y-98275000D01*
X169767000Y-98275000D01*
X169767000Y-98963000D01*
X171358361Y-98963000D01*
X171483803Y-98780256D01*
X171483398Y-98753854D01*
X171267724Y-98341882D01*
X170916127Y-98048242D01*
X171167724Y-97838118D01*
X171383398Y-97426146D01*
X171383803Y-97399744D01*
X171258361Y-97217000D01*
X169667000Y-97217000D01*
X169413000Y-97217000D01*
X167821639Y-97217000D01*
X167696197Y-97399744D01*
X156100316Y-97399744D01*
X156161929Y-97090000D01*
X156071726Y-96636520D01*
X155814851Y-96252078D01*
X155572283Y-96090000D01*
X155814851Y-95927922D01*
X156071726Y-95543480D01*
X156161929Y-95090000D01*
X156071726Y-94636520D01*
X155814851Y-94252078D01*
X155572283Y-94090000D01*
X155814851Y-93927922D01*
X156071726Y-93543480D01*
X156161929Y-93090000D01*
X156071726Y-92636520D01*
X155814851Y-92252078D01*
X155572283Y-92090000D01*
X155814851Y-91927922D01*
X156071726Y-91543480D01*
X156161929Y-91090000D01*
X156071726Y-90636520D01*
X155814851Y-90252078D01*
X155572283Y-90090000D01*
X155814851Y-89927922D01*
X156071726Y-89543480D01*
X156161929Y-89090000D01*
X156071726Y-88636520D01*
X155814851Y-88252078D01*
X155572283Y-88090000D01*
X155814851Y-87927922D01*
X156071726Y-87543480D01*
X156161929Y-87090000D01*
X156071726Y-86636520D01*
X155814851Y-86252078D01*
X155764129Y-86218187D01*
X155941441Y-86104090D01*
X156086431Y-85891890D01*
X156137440Y-85640000D01*
X156137440Y-84540000D01*
X156093162Y-84304683D01*
X155954090Y-84088559D01*
X155746911Y-83947000D01*
X168691923Y-83947000D01*
X168449591Y-83995203D01*
X168065149Y-84252078D01*
X167808274Y-84636520D01*
X167718071Y-85090000D01*
X167808274Y-85543480D01*
X168065149Y-85927922D01*
X168307717Y-86090000D01*
X168065149Y-86252078D01*
X167808274Y-86636520D01*
X167718071Y-87090000D01*
X167808274Y-87543480D01*
X168065149Y-87927922D01*
X168307717Y-88090000D01*
X168065149Y-88252078D01*
X167808274Y-88636520D01*
X167718071Y-89090000D01*
X167808274Y-89543480D01*
X168065149Y-89927922D01*
X168307717Y-90090000D01*
X168065149Y-90252078D01*
X167808274Y-90636520D01*
X167718071Y-91090000D01*
X167808274Y-91543480D01*
X168065149Y-91927922D01*
X168307717Y-92090000D01*
X168065149Y-92252078D01*
X167808274Y-92636520D01*
X167718071Y-93090000D01*
X167808274Y-93543480D01*
X168065149Y-93927922D01*
X168307717Y-94090000D01*
X168065149Y-94252078D01*
X167808274Y-94636520D01*
X167718071Y-95090000D01*
X167808274Y-95543480D01*
X168065149Y-95927922D01*
X168255583Y-96055165D01*
X167912276Y-96341882D01*
X167696602Y-96753854D01*
X167696197Y-96780256D01*
X167821639Y-96963000D01*
X169413000Y-96963000D01*
X169413000Y-96943000D01*
X169667000Y-96943000D01*
X169667000Y-96963000D01*
X171258361Y-96963000D01*
X171383803Y-96780256D01*
X171383398Y-96753854D01*
X171167724Y-96341882D01*
X170913309Y-96129405D01*
X171214851Y-95927922D01*
X171266917Y-95850000D01*
X179230000Y-95850000D01*
X179520839Y-95792148D01*
X179767401Y-95627401D01*
X179860615Y-95534187D01*
X187794752Y-95534187D01*
X188012757Y-96061800D01*
X188416077Y-96465824D01*
X188470000Y-96488215D01*
X188470000Y-98497537D01*
X188437808Y-98529673D01*
X188295162Y-98873201D01*
X188294838Y-99245167D01*
X188436883Y-99588943D01*
X188699673Y-99852192D01*
X189043201Y-99994838D01*
X189415167Y-99995162D01*
X189758943Y-99853117D01*
X190022192Y-99590327D01*
X190164838Y-99246799D01*
X190165162Y-98874833D01*
X190023117Y-98531057D01*
X189990000Y-98497882D01*
X189990000Y-96488646D01*
X190041800Y-96467243D01*
X190445824Y-96063923D01*
X190664750Y-95536691D01*
X190665248Y-94965813D01*
X190447243Y-94438200D01*
X190043923Y-94034176D01*
X189516691Y-93815250D01*
X188945813Y-93814752D01*
X188418200Y-94032757D01*
X188014176Y-94436077D01*
X187795250Y-94963309D01*
X187794752Y-95534187D01*
X179860615Y-95534187D01*
X181286114Y-94108688D01*
X181610000Y-94173113D01*
X182159151Y-94063880D01*
X182624698Y-93752811D01*
X182935767Y-93287264D01*
X183045000Y-92738113D01*
X183045000Y-92681887D01*
X182935767Y-92132736D01*
X182624698Y-91667189D01*
X182159151Y-91356120D01*
X181610000Y-91246887D01*
X181060849Y-91356120D01*
X180595302Y-91667189D01*
X180284233Y-92132736D01*
X180175000Y-92681887D01*
X180175000Y-92738113D01*
X180230096Y-93015102D01*
X178915198Y-94330000D01*
X171266917Y-94330000D01*
X171214851Y-94252078D01*
X170972283Y-94090000D01*
X171214851Y-93927922D01*
X171266917Y-93850000D01*
X175660755Y-93850000D01*
X175980849Y-94063880D01*
X176530000Y-94173113D01*
X177079151Y-94063880D01*
X177544698Y-93752811D01*
X177855767Y-93287264D01*
X177965000Y-92738113D01*
X177965000Y-92681887D01*
X177855767Y-92132736D01*
X177544698Y-91667189D01*
X177140000Y-91396778D01*
X177140000Y-90355047D01*
X177304943Y-90286894D01*
X177765278Y-89827363D01*
X177834773Y-89660000D01*
X181424953Y-89660000D01*
X181493106Y-89824943D01*
X181952637Y-90285278D01*
X182553352Y-90534716D01*
X183203795Y-90535284D01*
X183804943Y-90286894D01*
X184265278Y-89827363D01*
X184514716Y-89226648D01*
X184515284Y-88576205D01*
X184266894Y-87975057D01*
X183807363Y-87514722D01*
X183206648Y-87265284D01*
X182556205Y-87264716D01*
X181955057Y-87513106D01*
X181494722Y-87972637D01*
X181425227Y-88140000D01*
X177835047Y-88140000D01*
X177766894Y-87975057D01*
X177307363Y-87514722D01*
X176706648Y-87265284D01*
X176056205Y-87264716D01*
X175455057Y-87513106D01*
X174994722Y-87972637D01*
X174745284Y-88573352D01*
X174744716Y-89223795D01*
X174993106Y-89824943D01*
X175452637Y-90285278D01*
X175620000Y-90354773D01*
X175620000Y-91597232D01*
X175515302Y-91667189D01*
X175204233Y-92132736D01*
X175164995Y-92330000D01*
X171266917Y-92330000D01*
X171214851Y-92252078D01*
X170972283Y-92090000D01*
X171214851Y-91927922D01*
X171471726Y-91543480D01*
X171561929Y-91090000D01*
X171471726Y-90636520D01*
X171214851Y-90252078D01*
X170972283Y-90090000D01*
X171214851Y-89927922D01*
X171471726Y-89543480D01*
X171561929Y-89090000D01*
X171471726Y-88636520D01*
X171214851Y-88252078D01*
X170972283Y-88090000D01*
X171214851Y-87927922D01*
X171266917Y-87850000D01*
X171990000Y-87850000D01*
X172280839Y-87792148D01*
X172527401Y-87627401D01*
X173034802Y-87120000D01*
X177800000Y-87120000D01*
X178090839Y-87062148D01*
X178337401Y-86897401D01*
X179607401Y-85627401D01*
X179657426Y-85552532D01*
X181907073Y-85552532D01*
X182005736Y-85819387D01*
X182615461Y-86045908D01*
X183265460Y-86021856D01*
X183754264Y-85819387D01*
X183852927Y-85552532D01*
X182880000Y-84579605D01*
X181907073Y-85552532D01*
X179657426Y-85552532D01*
X179772148Y-85380840D01*
X179830000Y-85090000D01*
X179830000Y-84135461D01*
X181234092Y-84135461D01*
X181258144Y-84785460D01*
X181460613Y-85274264D01*
X181727468Y-85372927D01*
X182700395Y-84400000D01*
X181727468Y-83427073D01*
X181460613Y-83525736D01*
X181234092Y-84135461D01*
X179830000Y-84135461D01*
X179830000Y-79304802D01*
X183358945Y-82833747D01*
X183144539Y-82754092D01*
X182494540Y-82778144D01*
X182005736Y-82980613D01*
X181907073Y-83247468D01*
X182880000Y-84220395D01*
X182894143Y-84206253D01*
X183073748Y-84385858D01*
X183059605Y-84400000D01*
X184032532Y-85372927D01*
X184299387Y-85274264D01*
X184525908Y-84664539D01*
X184501856Y-84014540D01*
X184475069Y-83949871D01*
X187850096Y-87324898D01*
X187795000Y-87601887D01*
X187795000Y-87658113D01*
X187904233Y-88207264D01*
X188215302Y-88672811D01*
X188680849Y-88983880D01*
X189230000Y-89093113D01*
X189779151Y-88983880D01*
X190244698Y-88672811D01*
X190555767Y-88207264D01*
X190665000Y-87658113D01*
X190665000Y-87601887D01*
X190555767Y-87052736D01*
X190244698Y-86587189D01*
X189779151Y-86276120D01*
X189230000Y-86166887D01*
X188906114Y-86231312D01*
X181650783Y-78975981D01*
X182178285Y-78871054D01*
X182660054Y-78549147D01*
X182873301Y-78230000D01*
X182886699Y-78230000D01*
X183099946Y-78549147D01*
X183581715Y-78871054D01*
X184150000Y-78984093D01*
X184718285Y-78871054D01*
X185200054Y-78549147D01*
X185420000Y-78219974D01*
X185639946Y-78549147D01*
X186121715Y-78871054D01*
X186690000Y-78984093D01*
X187258285Y-78871054D01*
X187740054Y-78549147D01*
X188061961Y-78067378D01*
X188175000Y-77499093D01*
X188175000Y-77440907D01*
X188061961Y-76872622D01*
X187740054Y-76390853D01*
X187258285Y-76068946D01*
X186690000Y-75955907D01*
X186121715Y-76068946D01*
X185639946Y-76390853D01*
X185420000Y-76720026D01*
X185200054Y-76390853D01*
X184718285Y-76068946D01*
X184150000Y-75955907D01*
X183581715Y-76068946D01*
X183099946Y-76390853D01*
X182886699Y-76710000D01*
X182873301Y-76710000D01*
X182660054Y-76390853D01*
X182178285Y-76068946D01*
X181610000Y-75955907D01*
X181041715Y-76068946D01*
X180559946Y-76390853D01*
X180340000Y-76720026D01*
X180120054Y-76390853D01*
X179638285Y-76068946D01*
X179070000Y-75955907D01*
X178501715Y-76068946D01*
X178019946Y-76390853D01*
X177800000Y-76720026D01*
X177580054Y-76390853D01*
X177098285Y-76068946D01*
X176530000Y-75955907D01*
X175961715Y-76068946D01*
X175479946Y-76390853D01*
X175450597Y-76434777D01*
X175378327Y-76260302D01*
X175199699Y-76081673D01*
X174966310Y-75985000D01*
X174275750Y-75985000D01*
X174117000Y-76143750D01*
X174117000Y-77343000D01*
X174137000Y-77343000D01*
X174137000Y-77597000D01*
X174117000Y-77597000D01*
X174117000Y-77617000D01*
X173863000Y-77617000D01*
X173863000Y-77597000D01*
X172663750Y-77597000D01*
X172505000Y-77755750D01*
X172505000Y-78446309D01*
X172601673Y-78679698D01*
X172780301Y-78858327D01*
X173013690Y-78955000D01*
X173704250Y-78955000D01*
X173862998Y-78796252D01*
X173862998Y-78955000D01*
X173970198Y-78955000D01*
X172182599Y-80742599D01*
X172017852Y-80989161D01*
X171960000Y-81280000D01*
X171960000Y-83505198D01*
X171213813Y-84251385D01*
X170830409Y-83995203D01*
X170376929Y-83905000D01*
X170272677Y-83905000D01*
X170296994Y-83869410D01*
X170307000Y-83820000D01*
X170307000Y-76493691D01*
X172505000Y-76493691D01*
X172505000Y-77184250D01*
X172663750Y-77343000D01*
X173863000Y-77343000D01*
X173863000Y-76143750D01*
X173704250Y-75985000D01*
X173013690Y-75985000D01*
X172780301Y-76081673D01*
X172601673Y-76260302D01*
X172505000Y-76493691D01*
X170307000Y-76493691D01*
X170307000Y-76200000D01*
X170298315Y-76153841D01*
X170271035Y-76111447D01*
X170229410Y-76083006D01*
X170180000Y-76073000D01*
X152400000Y-76073000D01*
X152353841Y-76081685D01*
X152311447Y-76108965D01*
X152283006Y-76150590D01*
X152273000Y-76200000D01*
X152273000Y-83820000D01*
X152281685Y-83866159D01*
X152308965Y-83908553D01*
X152350590Y-83936994D01*
X152400000Y-83947000D01*
X152738891Y-83947000D01*
X152538559Y-84075910D01*
X152393569Y-84288110D01*
X152385086Y-84330000D01*
X149344033Y-84330000D01*
X149311682Y-84167363D01*
X149292148Y-84069160D01*
X149127401Y-83822599D01*
X149036275Y-83731473D01*
X149104716Y-83566648D01*
X149105284Y-82916205D01*
X148856894Y-82315057D01*
X148397363Y-81854722D01*
X147796648Y-81605284D01*
X147146205Y-81604716D01*
X146545057Y-81853106D01*
X146084722Y-82312637D01*
X146015227Y-82480000D01*
X142425047Y-82480000D01*
X142356894Y-82315057D01*
X141897363Y-81854722D01*
X141296648Y-81605284D01*
X140646205Y-81604716D01*
X140045057Y-81853106D01*
X139584722Y-82312637D01*
X139335284Y-82913352D01*
X139334716Y-83563795D01*
X139140000Y-83563795D01*
X139140000Y-79892532D01*
X139997073Y-79892532D01*
X140095736Y-80159387D01*
X140705461Y-80385908D01*
X141355460Y-80361856D01*
X141844264Y-80159387D01*
X141942927Y-79892532D01*
X146497073Y-79892532D01*
X146595736Y-80159387D01*
X147205461Y-80385908D01*
X147855460Y-80361856D01*
X148344264Y-80159387D01*
X148442927Y-79892532D01*
X147470000Y-78919605D01*
X146497073Y-79892532D01*
X141942927Y-79892532D01*
X140970000Y-78919605D01*
X139997073Y-79892532D01*
X139140000Y-79892532D01*
X139140000Y-78475461D01*
X139324092Y-78475461D01*
X139348144Y-79125460D01*
X139550613Y-79614264D01*
X139817468Y-79712927D01*
X140790395Y-78740000D01*
X141149605Y-78740000D01*
X142122532Y-79712927D01*
X142389387Y-79614264D01*
X142615908Y-79004539D01*
X142596331Y-78475461D01*
X145824092Y-78475461D01*
X145848144Y-79125460D01*
X146050613Y-79614264D01*
X146317468Y-79712927D01*
X147290395Y-78740000D01*
X147649605Y-78740000D01*
X148622532Y-79712927D01*
X148889387Y-79614264D01*
X149115908Y-79004539D01*
X149091856Y-78354540D01*
X148889387Y-77865736D01*
X148622532Y-77767073D01*
X147649605Y-78740000D01*
X147290395Y-78740000D01*
X146317468Y-77767073D01*
X146050613Y-77865736D01*
X145824092Y-78475461D01*
X142596331Y-78475461D01*
X142591856Y-78354540D01*
X142389387Y-77865736D01*
X142122532Y-77767073D01*
X141149605Y-78740000D01*
X140790395Y-78740000D01*
X139817468Y-77767073D01*
X139550613Y-77865736D01*
X139324092Y-78475461D01*
X139140000Y-78475461D01*
X139140000Y-77587468D01*
X139997073Y-77587468D01*
X140970000Y-78560395D01*
X141942927Y-77587468D01*
X146497073Y-77587468D01*
X147470000Y-78560395D01*
X148442927Y-77587468D01*
X148344264Y-77320613D01*
X147734539Y-77094092D01*
X147084540Y-77118144D01*
X146595736Y-77320613D01*
X146497073Y-77587468D01*
X141942927Y-77587468D01*
X141844264Y-77320613D01*
X141234539Y-77094092D01*
X140584540Y-77118144D01*
X140095736Y-77320613D01*
X139997073Y-77587468D01*
X139140000Y-77587468D01*
X139140000Y-74370000D01*
X193600000Y-74370000D01*
X193600000Y-122480000D01*
X193600000Y-122480000D01*
G37*
X193600000Y-122480000D02*
X139140000Y-122480000D01*
X139140000Y-120046750D01*
X151042000Y-120046750D01*
X151042000Y-120737310D01*
X151138673Y-120970699D01*
X151317302Y-121149327D01*
X151550691Y-121246000D01*
X152241250Y-121246000D01*
X152400000Y-121087250D01*
X152400000Y-119888000D01*
X152654000Y-119888000D01*
X152654000Y-121087250D01*
X152812750Y-121246000D01*
X153503309Y-121246000D01*
X153736698Y-121149327D01*
X153915327Y-120970699D01*
X154012000Y-120737310D01*
X154012000Y-120046750D01*
X169584000Y-120046750D01*
X169584000Y-120737310D01*
X169680673Y-120970699D01*
X169859302Y-121149327D01*
X170092691Y-121246000D01*
X170783250Y-121246000D01*
X170942000Y-121087250D01*
X170942000Y-119888000D01*
X171196000Y-119888000D01*
X171196000Y-121087250D01*
X171354750Y-121246000D01*
X172045309Y-121246000D01*
X172278698Y-121149327D01*
X172457327Y-120970699D01*
X172554000Y-120737310D01*
X172554000Y-120046750D01*
X172395250Y-119888000D01*
X171196000Y-119888000D01*
X170942000Y-119888000D01*
X169742750Y-119888000D01*
X169584000Y-120046750D01*
X154012000Y-120046750D01*
X153853250Y-119888000D01*
X152654000Y-119888000D01*
X152400000Y-119888000D01*
X151200750Y-119888000D01*
X151042000Y-120046750D01*
X139140000Y-120046750D01*
X139140000Y-118784690D01*
X151042000Y-118784690D01*
X151042000Y-119475250D01*
X151200750Y-119634000D01*
X152400000Y-119634000D01*
X152400000Y-117348000D01*
X152654000Y-117348000D01*
X152654000Y-119634000D01*
X153853250Y-119634000D01*
X154012000Y-119475250D01*
X154012000Y-118784690D01*
X169584000Y-118784690D01*
X169584000Y-119475250D01*
X169742750Y-119634000D01*
X170942000Y-119634000D01*
X170942000Y-117348000D01*
X171196000Y-117348000D01*
X171196000Y-119634000D01*
X172395250Y-119634000D01*
X172554000Y-119475250D01*
X172554000Y-118784690D01*
X172457327Y-118551301D01*
X172278698Y-118372673D01*
X172069122Y-118285864D01*
X172340645Y-117987924D01*
X172510476Y-117577890D01*
X172389155Y-117348000D01*
X171196000Y-117348000D01*
X170942000Y-117348000D01*
X169748845Y-117348000D01*
X169627524Y-117577890D01*
X169797355Y-117987924D01*
X170068878Y-118285864D01*
X169859302Y-118372673D01*
X169680673Y-118551301D01*
X169584000Y-118784690D01*
X154012000Y-118784690D01*
X153915327Y-118551301D01*
X153736698Y-118372673D01*
X153527122Y-118285864D01*
X153798645Y-117987924D01*
X153968476Y-117577890D01*
X153847155Y-117348000D01*
X152654000Y-117348000D01*
X152400000Y-117348000D01*
X151206845Y-117348000D01*
X151085524Y-117577890D01*
X151255355Y-117987924D01*
X151526878Y-118285864D01*
X151317302Y-118372673D01*
X151138673Y-118551301D01*
X151042000Y-118784690D01*
X139140000Y-118784690D01*
X139140000Y-116864110D01*
X151085524Y-116864110D01*
X151206845Y-117094000D01*
X152400000Y-117094000D01*
X152400000Y-115900181D01*
X152654000Y-115900181D01*
X152654000Y-117094000D01*
X153847155Y-117094000D01*
X153968476Y-116864110D01*
X169627524Y-116864110D01*
X169748845Y-117094000D01*
X170942000Y-117094000D01*
X170942000Y-115900181D01*
X171196000Y-115900181D01*
X171196000Y-117094000D01*
X172389155Y-117094000D01*
X172510476Y-116864110D01*
X172340645Y-116454076D01*
X171950358Y-116025817D01*
X171425892Y-115779514D01*
X171196000Y-115900181D01*
X170942000Y-115900181D01*
X170712108Y-115779514D01*
X170187642Y-116025817D01*
X169797355Y-116454076D01*
X169627524Y-116864110D01*
X153968476Y-116864110D01*
X153798645Y-116454076D01*
X153408358Y-116025817D01*
X152883892Y-115779514D01*
X152654000Y-115900181D01*
X152400000Y-115900181D01*
X152170108Y-115779514D01*
X151645642Y-116025817D01*
X151255355Y-116454076D01*
X151085524Y-116864110D01*
X139140000Y-116864110D01*
X139140000Y-83563795D01*
X139334716Y-83563795D01*
X139583106Y-84164943D01*
X140042637Y-84625278D01*
X140643352Y-84874716D01*
X141293795Y-84875284D01*
X141894943Y-84626894D01*
X142355278Y-84167363D01*
X142424773Y-84000000D01*
X146014953Y-84000000D01*
X146083106Y-84164943D01*
X146542637Y-84625278D01*
X147143352Y-84874716D01*
X147793795Y-84875284D01*
X147830000Y-84860324D01*
X147830000Y-87696333D01*
X147547189Y-87885302D01*
X147236120Y-88350849D01*
X147126887Y-88900000D01*
X147236120Y-89449151D01*
X147547189Y-89914698D01*
X148012736Y-90225767D01*
X148561887Y-90335000D01*
X148618113Y-90335000D01*
X149167264Y-90225767D01*
X149632811Y-89914698D01*
X149943880Y-89449151D01*
X150053113Y-88900000D01*
X149943880Y-88350849D01*
X149632811Y-87885302D01*
X149350000Y-87696333D01*
X149350000Y-85850000D01*
X152382074Y-85850000D01*
X152386838Y-85875317D01*
X152525910Y-86091441D01*
X152713615Y-86219694D01*
X152665149Y-86252078D01*
X152408274Y-86636520D01*
X152318071Y-87090000D01*
X152408274Y-87543480D01*
X152665149Y-87927922D01*
X152907717Y-88090000D01*
X152665149Y-88252078D01*
X152613083Y-88330000D01*
X152210000Y-88330000D01*
X151919161Y-88387852D01*
X151672599Y-88552599D01*
X148052599Y-92172599D01*
X147887852Y-92419161D01*
X147830000Y-92710000D01*
X147830000Y-94011354D01*
X147778200Y-94032757D01*
X147374176Y-94436077D01*
X147155250Y-94963309D01*
X147154752Y-95534187D01*
X147372757Y-96061800D01*
X147776077Y-96465824D01*
X148303309Y-96684750D01*
X148874187Y-96685248D01*
X149401800Y-96467243D01*
X149805824Y-96063923D01*
X150024750Y-95536691D01*
X150025248Y-94965813D01*
X149807243Y-94438200D01*
X149403923Y-94034176D01*
X149350000Y-94011785D01*
X149350000Y-93024802D01*
X152524802Y-89850000D01*
X152613083Y-89850000D01*
X152665149Y-89927922D01*
X152907717Y-90090000D01*
X152665149Y-90252078D01*
X152408274Y-90636520D01*
X152318071Y-91090000D01*
X152408274Y-91543480D01*
X152665149Y-91927922D01*
X152907717Y-92090000D01*
X152665149Y-92252078D01*
X152408274Y-92636520D01*
X152318071Y-93090000D01*
X152408274Y-93543480D01*
X152665149Y-93927922D01*
X152907717Y-94090000D01*
X152665149Y-94252078D01*
X152408274Y-94636520D01*
X152318071Y-95090000D01*
X152408274Y-95543480D01*
X152665149Y-95927922D01*
X152907717Y-96090000D01*
X152665149Y-96252078D01*
X152408274Y-96636520D01*
X152318071Y-97090000D01*
X152408274Y-97543480D01*
X152665149Y-97927922D01*
X152907717Y-98090000D01*
X152735606Y-98205000D01*
X152430005Y-98205000D01*
X152430000Y-98204999D01*
X152429995Y-98205000D01*
X145176579Y-98205000D01*
X142398017Y-95426438D01*
X142433113Y-95250000D01*
X142323880Y-94700849D01*
X142012811Y-94235302D01*
X141730000Y-94046333D01*
X141730000Y-90138646D01*
X141781800Y-90117243D01*
X142185824Y-89713923D01*
X142404750Y-89186691D01*
X142405248Y-88615813D01*
X142187243Y-88088200D01*
X141783923Y-87684176D01*
X141256691Y-87465250D01*
X140685813Y-87464752D01*
X140158200Y-87682757D01*
X139754176Y-88086077D01*
X139535250Y-88613309D01*
X139534752Y-89184187D01*
X139752757Y-89711800D01*
X140156077Y-90115824D01*
X140210000Y-90138215D01*
X140210000Y-94046333D01*
X139927189Y-94235302D01*
X139616120Y-94700849D01*
X139506887Y-95250000D01*
X139616120Y-95799151D01*
X139927189Y-96264698D01*
X140392736Y-96575767D01*
X140941887Y-96685000D01*
X140998113Y-96685000D01*
X141127653Y-96659233D01*
X144184208Y-99715787D01*
X144184210Y-99715790D01*
X144389736Y-99853117D01*
X144471325Y-99907633D01*
X144810000Y-99975001D01*
X144810005Y-99975000D01*
X151642000Y-99975000D01*
X151642000Y-104865221D01*
X151447853Y-104994946D01*
X151125946Y-105476715D01*
X151012907Y-106045000D01*
X151125946Y-106613285D01*
X151447853Y-107095054D01*
X151483641Y-107118966D01*
X151474161Y-107120852D01*
X151464005Y-107127638D01*
X151441683Y-107131838D01*
X151225559Y-107270910D01*
X151080569Y-107483110D01*
X151074021Y-107515446D01*
X151062852Y-107532161D01*
X151005000Y-107823000D01*
X151029560Y-107946470D01*
X151029560Y-109435000D01*
X151073838Y-109670317D01*
X151212910Y-109886441D01*
X151425110Y-110031431D01*
X151677000Y-110082440D01*
X153377000Y-110082440D01*
X153612317Y-110038162D01*
X153828441Y-109899090D01*
X153973431Y-109686890D01*
X154024440Y-109435000D01*
X154024440Y-107735000D01*
X153980162Y-107499683D01*
X153841090Y-107283559D01*
X153628890Y-107138569D01*
X153561459Y-107124914D01*
X153606147Y-107095054D01*
X153928054Y-106613285D01*
X154024032Y-106130770D01*
X154109802Y-106045000D01*
X169554907Y-106045000D01*
X169667946Y-106613285D01*
X169934000Y-107011464D01*
X169934000Y-107163808D01*
X169767559Y-107270910D01*
X169622569Y-107483110D01*
X169571560Y-107735000D01*
X169571560Y-109435000D01*
X169615838Y-109670317D01*
X169754910Y-109886441D01*
X169967110Y-110031431D01*
X170219000Y-110082440D01*
X170991042Y-110082440D01*
X171269655Y-110268604D01*
X171704000Y-110355000D01*
X177935000Y-110355000D01*
X177935000Y-115962560D01*
X177570000Y-115962560D01*
X177334683Y-116006838D01*
X177118559Y-116145910D01*
X176973569Y-116358110D01*
X176922560Y-116610000D01*
X176922560Y-119610000D01*
X176966838Y-119845317D01*
X177105910Y-120061441D01*
X177318110Y-120206431D01*
X177570000Y-120257440D01*
X180570000Y-120257440D01*
X180805317Y-120213162D01*
X181021441Y-120074090D01*
X181166431Y-119861890D01*
X181217440Y-119610000D01*
X181217440Y-116610000D01*
X181173162Y-116374683D01*
X181034090Y-116158559D01*
X180821890Y-116013569D01*
X180570000Y-115962560D01*
X180205000Y-115962560D01*
X180205000Y-113215167D01*
X181944838Y-113215167D01*
X182086883Y-113558943D01*
X182349673Y-113822192D01*
X182693201Y-113964838D01*
X182740077Y-113964879D01*
X183390000Y-114614802D01*
X183390000Y-116113952D01*
X182942200Y-116298980D01*
X182341091Y-116899041D01*
X182015372Y-117683459D01*
X182014630Y-118532815D01*
X182338980Y-119317800D01*
X182939041Y-119918909D01*
X183723459Y-120244628D01*
X184572815Y-120245370D01*
X185357800Y-119921020D01*
X185655368Y-119623970D01*
X187895635Y-119623970D01*
X188055418Y-119942739D01*
X188846187Y-120252723D01*
X189695387Y-120236497D01*
X190404582Y-119942739D01*
X190564365Y-119623970D01*
X189230000Y-118289605D01*
X187895635Y-119623970D01*
X185655368Y-119623970D01*
X185958909Y-119320959D01*
X186284628Y-118536541D01*
X186285335Y-117726187D01*
X187087277Y-117726187D01*
X187103503Y-118575387D01*
X187397261Y-119284582D01*
X187716030Y-119444365D01*
X189050395Y-118110000D01*
X189409605Y-118110000D01*
X190743970Y-119444365D01*
X191062739Y-119284582D01*
X191372723Y-118493813D01*
X191356497Y-117644613D01*
X191062739Y-116935418D01*
X190743970Y-116775635D01*
X189409605Y-118110000D01*
X189050395Y-118110000D01*
X187716030Y-116775635D01*
X187397261Y-116935418D01*
X187087277Y-117726187D01*
X186285335Y-117726187D01*
X186285370Y-117687185D01*
X185961020Y-116902200D01*
X185655384Y-116596030D01*
X187895635Y-116596030D01*
X189230000Y-117930395D01*
X190564365Y-116596030D01*
X190404582Y-116277261D01*
X189613813Y-115967277D01*
X188764613Y-115983503D01*
X188055418Y-116277261D01*
X187895635Y-116596030D01*
X185655384Y-116596030D01*
X185360959Y-116301091D01*
X184910000Y-116113836D01*
X184910000Y-114300000D01*
X184852148Y-114009161D01*
X184852148Y-114009160D01*
X184687401Y-113762599D01*
X183815122Y-112890320D01*
X183815162Y-112844833D01*
X183673117Y-112501057D01*
X183410327Y-112237808D01*
X183066799Y-112095162D01*
X182694833Y-112094838D01*
X182351057Y-112236883D01*
X182087808Y-112499673D01*
X181945162Y-112843201D01*
X181944838Y-113215167D01*
X180205000Y-113215167D01*
X180205000Y-110355000D01*
X185812560Y-110355000D01*
X185812560Y-110720000D01*
X185856838Y-110955317D01*
X185995910Y-111171441D01*
X186208110Y-111316431D01*
X186460000Y-111367440D01*
X189460000Y-111367440D01*
X189695317Y-111323162D01*
X189911441Y-111184090D01*
X190056431Y-110971890D01*
X190107440Y-110720000D01*
X190107440Y-107720000D01*
X190063162Y-107484683D01*
X189924090Y-107268559D01*
X189711890Y-107123569D01*
X189460000Y-107072560D01*
X186460000Y-107072560D01*
X186224683Y-107116838D01*
X186008559Y-107255910D01*
X185863569Y-107468110D01*
X185812560Y-107720000D01*
X185812560Y-108085000D01*
X172566440Y-108085000D01*
X172566440Y-107735000D01*
X172522162Y-107499683D01*
X172383090Y-107283559D01*
X172204000Y-107161192D01*
X172204000Y-107011464D01*
X172470054Y-106613285D01*
X172583093Y-106045000D01*
X172505313Y-105653970D01*
X186625635Y-105653970D01*
X186785418Y-105972739D01*
X187576187Y-106282723D01*
X188425387Y-106266497D01*
X189134582Y-105972739D01*
X189294365Y-105653970D01*
X187960000Y-104319605D01*
X186625635Y-105653970D01*
X172505313Y-105653970D01*
X172470054Y-105476715D01*
X172148147Y-104994946D01*
X171666378Y-104673039D01*
X171098093Y-104560000D01*
X171039907Y-104560000D01*
X170471622Y-104673039D01*
X169989853Y-104994946D01*
X169667946Y-105476715D01*
X169554907Y-106045000D01*
X154109802Y-106045000D01*
X155079680Y-105075122D01*
X155125167Y-105075162D01*
X155468943Y-104933117D01*
X155732192Y-104670327D01*
X155874838Y-104326799D01*
X155875162Y-103954833D01*
X155793084Y-103756187D01*
X185817277Y-103756187D01*
X185833503Y-104605387D01*
X186127261Y-105314582D01*
X186446030Y-105474365D01*
X187780395Y-104140000D01*
X188139605Y-104140000D01*
X189473970Y-105474365D01*
X189792739Y-105314582D01*
X190102723Y-104523813D01*
X190086497Y-103674613D01*
X189792739Y-102965418D01*
X189473970Y-102805635D01*
X188139605Y-104140000D01*
X187780395Y-104140000D01*
X186446030Y-102805635D01*
X186127261Y-102965418D01*
X185817277Y-103756187D01*
X155793084Y-103756187D01*
X155733117Y-103611057D01*
X155470327Y-103347808D01*
X155126799Y-103205162D01*
X154754833Y-103204838D01*
X154411057Y-103346883D01*
X154147808Y-103609673D01*
X154005162Y-103953201D01*
X154005121Y-104000077D01*
X153412000Y-104593198D01*
X153412000Y-100256885D01*
X153503071Y-100275000D01*
X154976929Y-100275000D01*
X155430409Y-100184797D01*
X155763003Y-99962566D01*
X155745000Y-100053071D01*
X155745000Y-101526929D01*
X155835203Y-101980409D01*
X156092078Y-102364851D01*
X156476520Y-102621726D01*
X156930000Y-102711929D01*
X157383480Y-102621726D01*
X157767922Y-102364851D01*
X157930000Y-102122283D01*
X158092078Y-102364851D01*
X158476520Y-102621726D01*
X158930000Y-102711929D01*
X159383480Y-102621726D01*
X159767922Y-102364851D01*
X159930000Y-102122283D01*
X160092078Y-102364851D01*
X160476520Y-102621726D01*
X160930000Y-102711929D01*
X161383480Y-102621726D01*
X161767922Y-102364851D01*
X161930000Y-102122283D01*
X162092078Y-102364851D01*
X162476520Y-102621726D01*
X162930000Y-102711929D01*
X163383480Y-102621726D01*
X163767922Y-102364851D01*
X163930000Y-102122283D01*
X164092078Y-102364851D01*
X164476520Y-102621726D01*
X164930000Y-102711929D01*
X165383480Y-102621726D01*
X165767922Y-102364851D01*
X165930000Y-102122283D01*
X166092078Y-102364851D01*
X166476520Y-102621726D01*
X166930000Y-102711929D01*
X167361842Y-102626030D01*
X186625635Y-102626030D01*
X187960000Y-103960395D01*
X189294365Y-102626030D01*
X189134582Y-102307261D01*
X188343813Y-101997277D01*
X187494613Y-102013503D01*
X186785418Y-102307261D01*
X186625635Y-102626030D01*
X167361842Y-102626030D01*
X167383480Y-102621726D01*
X167767922Y-102364851D01*
X168024797Y-101980409D01*
X168063633Y-101785167D01*
X174324838Y-101785167D01*
X174466883Y-102128943D01*
X174729673Y-102392192D01*
X175073201Y-102534838D01*
X175445167Y-102535162D01*
X175788943Y-102393117D01*
X176052192Y-102130327D01*
X176194838Y-101786799D01*
X176194875Y-101744638D01*
X176243309Y-101764750D01*
X176814187Y-101765248D01*
X177341800Y-101547243D01*
X177745824Y-101143923D01*
X177768215Y-101090000D01*
X180371354Y-101090000D01*
X180392757Y-101141800D01*
X180796077Y-101545824D01*
X181323309Y-101764750D01*
X181894187Y-101765248D01*
X182421800Y-101547243D01*
X182825824Y-101143923D01*
X183044750Y-100616691D01*
X183045248Y-100045813D01*
X182827243Y-99518200D01*
X182423923Y-99114176D01*
X181896691Y-98895250D01*
X181325813Y-98894752D01*
X180798200Y-99112757D01*
X180394176Y-99516077D01*
X180371785Y-99570000D01*
X177768646Y-99570000D01*
X177747243Y-99518200D01*
X177343923Y-99114176D01*
X176816691Y-98895250D01*
X176245813Y-98894752D01*
X175718200Y-99112757D01*
X175314176Y-99516077D01*
X175095250Y-100043309D01*
X175094752Y-100614187D01*
X175115695Y-100664874D01*
X175074833Y-100664838D01*
X174731057Y-100806883D01*
X174467808Y-101069673D01*
X174325162Y-101413201D01*
X174324838Y-101785167D01*
X168063633Y-101785167D01*
X168115000Y-101526929D01*
X168115000Y-100053071D01*
X168084190Y-99898177D01*
X168369187Y-100136196D01*
X168813000Y-100275000D01*
X169513000Y-100275000D01*
X169513000Y-99217000D01*
X169767000Y-99217000D01*
X169767000Y-100275000D01*
X170467000Y-100275000D01*
X170910813Y-100136196D01*
X171267724Y-99838118D01*
X171483398Y-99426146D01*
X171483803Y-99399744D01*
X171358361Y-99217000D01*
X169767000Y-99217000D01*
X169513000Y-99217000D01*
X167921639Y-99217000D01*
X167844371Y-99329564D01*
X167767922Y-99215149D01*
X167383480Y-98958274D01*
X166930000Y-98868071D01*
X166476520Y-98958274D01*
X166092078Y-99215149D01*
X165930000Y-99457717D01*
X165767922Y-99215149D01*
X165383480Y-98958274D01*
X164930000Y-98868071D01*
X164476520Y-98958274D01*
X164092078Y-99215149D01*
X163930000Y-99457717D01*
X163767922Y-99215149D01*
X163383480Y-98958274D01*
X162930000Y-98868071D01*
X162476520Y-98958274D01*
X162092078Y-99215149D01*
X161930000Y-99457717D01*
X161767922Y-99215149D01*
X161383480Y-98958274D01*
X160930000Y-98868071D01*
X160476520Y-98958274D01*
X160092078Y-99215149D01*
X159930000Y-99457717D01*
X159767922Y-99215149D01*
X159383480Y-98958274D01*
X158930000Y-98868071D01*
X158476520Y-98958274D01*
X158092078Y-99215149D01*
X157930000Y-99457717D01*
X157767922Y-99215149D01*
X157383480Y-98958274D01*
X156930000Y-98868071D01*
X156476520Y-98958274D01*
X156143926Y-99180505D01*
X156161929Y-99090000D01*
X156071726Y-98636520D01*
X155814851Y-98252078D01*
X155572283Y-98090000D01*
X155814851Y-97927922D01*
X156071726Y-97543480D01*
X156100316Y-97399744D01*
X167696197Y-97399744D01*
X167696602Y-97426146D01*
X167912276Y-97838118D01*
X168263873Y-98131758D01*
X168012276Y-98341882D01*
X167796602Y-98753854D01*
X167796197Y-98780256D01*
X167921639Y-98963000D01*
X169513000Y-98963000D01*
X169513000Y-97905000D01*
X169413000Y-97905000D01*
X169413000Y-97217000D01*
X169667000Y-97217000D01*
X169667000Y-98275000D01*
X169767000Y-98275000D01*
X169767000Y-98963000D01*
X171358361Y-98963000D01*
X171483803Y-98780256D01*
X171483398Y-98753854D01*
X171267724Y-98341882D01*
X170916127Y-98048242D01*
X171167724Y-97838118D01*
X171383398Y-97426146D01*
X171383803Y-97399744D01*
X171258361Y-97217000D01*
X169667000Y-97217000D01*
X169413000Y-97217000D01*
X167821639Y-97217000D01*
X167696197Y-97399744D01*
X156100316Y-97399744D01*
X156161929Y-97090000D01*
X156071726Y-96636520D01*
X155814851Y-96252078D01*
X155572283Y-96090000D01*
X155814851Y-95927922D01*
X156071726Y-95543480D01*
X156161929Y-95090000D01*
X156071726Y-94636520D01*
X155814851Y-94252078D01*
X155572283Y-94090000D01*
X155814851Y-93927922D01*
X156071726Y-93543480D01*
X156161929Y-93090000D01*
X156071726Y-92636520D01*
X155814851Y-92252078D01*
X155572283Y-92090000D01*
X155814851Y-91927922D01*
X156071726Y-91543480D01*
X156161929Y-91090000D01*
X156071726Y-90636520D01*
X155814851Y-90252078D01*
X155572283Y-90090000D01*
X155814851Y-89927922D01*
X156071726Y-89543480D01*
X156161929Y-89090000D01*
X156071726Y-88636520D01*
X155814851Y-88252078D01*
X155572283Y-88090000D01*
X155814851Y-87927922D01*
X156071726Y-87543480D01*
X156161929Y-87090000D01*
X156071726Y-86636520D01*
X155814851Y-86252078D01*
X155764129Y-86218187D01*
X155941441Y-86104090D01*
X156086431Y-85891890D01*
X156137440Y-85640000D01*
X156137440Y-84540000D01*
X156093162Y-84304683D01*
X155954090Y-84088559D01*
X155746911Y-83947000D01*
X168691923Y-83947000D01*
X168449591Y-83995203D01*
X168065149Y-84252078D01*
X167808274Y-84636520D01*
X167718071Y-85090000D01*
X167808274Y-85543480D01*
X168065149Y-85927922D01*
X168307717Y-86090000D01*
X168065149Y-86252078D01*
X167808274Y-86636520D01*
X167718071Y-87090000D01*
X167808274Y-87543480D01*
X168065149Y-87927922D01*
X168307717Y-88090000D01*
X168065149Y-88252078D01*
X167808274Y-88636520D01*
X167718071Y-89090000D01*
X167808274Y-89543480D01*
X168065149Y-89927922D01*
X168307717Y-90090000D01*
X168065149Y-90252078D01*
X167808274Y-90636520D01*
X167718071Y-91090000D01*
X167808274Y-91543480D01*
X168065149Y-91927922D01*
X168307717Y-92090000D01*
X168065149Y-92252078D01*
X167808274Y-92636520D01*
X167718071Y-93090000D01*
X167808274Y-93543480D01*
X168065149Y-93927922D01*
X168307717Y-94090000D01*
X168065149Y-94252078D01*
X167808274Y-94636520D01*
X167718071Y-95090000D01*
X167808274Y-95543480D01*
X168065149Y-95927922D01*
X168255583Y-96055165D01*
X167912276Y-96341882D01*
X167696602Y-96753854D01*
X167696197Y-96780256D01*
X167821639Y-96963000D01*
X169413000Y-96963000D01*
X169413000Y-96943000D01*
X169667000Y-96943000D01*
X169667000Y-96963000D01*
X171258361Y-96963000D01*
X171383803Y-96780256D01*
X171383398Y-96753854D01*
X171167724Y-96341882D01*
X170913309Y-96129405D01*
X171214851Y-95927922D01*
X171266917Y-95850000D01*
X179230000Y-95850000D01*
X179520839Y-95792148D01*
X179767401Y-95627401D01*
X179860615Y-95534187D01*
X187794752Y-95534187D01*
X188012757Y-96061800D01*
X188416077Y-96465824D01*
X188470000Y-96488215D01*
X188470000Y-98497537D01*
X188437808Y-98529673D01*
X188295162Y-98873201D01*
X188294838Y-99245167D01*
X188436883Y-99588943D01*
X188699673Y-99852192D01*
X189043201Y-99994838D01*
X189415167Y-99995162D01*
X189758943Y-99853117D01*
X190022192Y-99590327D01*
X190164838Y-99246799D01*
X190165162Y-98874833D01*
X190023117Y-98531057D01*
X189990000Y-98497882D01*
X189990000Y-96488646D01*
X190041800Y-96467243D01*
X190445824Y-96063923D01*
X190664750Y-95536691D01*
X190665248Y-94965813D01*
X190447243Y-94438200D01*
X190043923Y-94034176D01*
X189516691Y-93815250D01*
X188945813Y-93814752D01*
X188418200Y-94032757D01*
X188014176Y-94436077D01*
X187795250Y-94963309D01*
X187794752Y-95534187D01*
X179860615Y-95534187D01*
X181286114Y-94108688D01*
X181610000Y-94173113D01*
X182159151Y-94063880D01*
X182624698Y-93752811D01*
X182935767Y-93287264D01*
X183045000Y-92738113D01*
X183045000Y-92681887D01*
X182935767Y-92132736D01*
X182624698Y-91667189D01*
X182159151Y-91356120D01*
X181610000Y-91246887D01*
X181060849Y-91356120D01*
X180595302Y-91667189D01*
X180284233Y-92132736D01*
X180175000Y-92681887D01*
X180175000Y-92738113D01*
X180230096Y-93015102D01*
X178915198Y-94330000D01*
X171266917Y-94330000D01*
X171214851Y-94252078D01*
X170972283Y-94090000D01*
X171214851Y-93927922D01*
X171266917Y-93850000D01*
X175660755Y-93850000D01*
X175980849Y-94063880D01*
X176530000Y-94173113D01*
X177079151Y-94063880D01*
X177544698Y-93752811D01*
X177855767Y-93287264D01*
X177965000Y-92738113D01*
X177965000Y-92681887D01*
X177855767Y-92132736D01*
X177544698Y-91667189D01*
X177140000Y-91396778D01*
X177140000Y-90355047D01*
X177304943Y-90286894D01*
X177765278Y-89827363D01*
X177834773Y-89660000D01*
X181424953Y-89660000D01*
X181493106Y-89824943D01*
X181952637Y-90285278D01*
X182553352Y-90534716D01*
X183203795Y-90535284D01*
X183804943Y-90286894D01*
X184265278Y-89827363D01*
X184514716Y-89226648D01*
X184515284Y-88576205D01*
X184266894Y-87975057D01*
X183807363Y-87514722D01*
X183206648Y-87265284D01*
X182556205Y-87264716D01*
X181955057Y-87513106D01*
X181494722Y-87972637D01*
X181425227Y-88140000D01*
X177835047Y-88140000D01*
X177766894Y-87975057D01*
X177307363Y-87514722D01*
X176706648Y-87265284D01*
X176056205Y-87264716D01*
X175455057Y-87513106D01*
X174994722Y-87972637D01*
X174745284Y-88573352D01*
X174744716Y-89223795D01*
X174993106Y-89824943D01*
X175452637Y-90285278D01*
X175620000Y-90354773D01*
X175620000Y-91597232D01*
X175515302Y-91667189D01*
X175204233Y-92132736D01*
X175164995Y-92330000D01*
X171266917Y-92330000D01*
X171214851Y-92252078D01*
X170972283Y-92090000D01*
X171214851Y-91927922D01*
X171471726Y-91543480D01*
X171561929Y-91090000D01*
X171471726Y-90636520D01*
X171214851Y-90252078D01*
X170972283Y-90090000D01*
X171214851Y-89927922D01*
X171471726Y-89543480D01*
X171561929Y-89090000D01*
X171471726Y-88636520D01*
X171214851Y-88252078D01*
X170972283Y-88090000D01*
X171214851Y-87927922D01*
X171266917Y-87850000D01*
X171990000Y-87850000D01*
X172280839Y-87792148D01*
X172527401Y-87627401D01*
X173034802Y-87120000D01*
X177800000Y-87120000D01*
X178090839Y-87062148D01*
X178337401Y-86897401D01*
X179607401Y-85627401D01*
X179657426Y-85552532D01*
X181907073Y-85552532D01*
X182005736Y-85819387D01*
X182615461Y-86045908D01*
X183265460Y-86021856D01*
X183754264Y-85819387D01*
X183852927Y-85552532D01*
X182880000Y-84579605D01*
X181907073Y-85552532D01*
X179657426Y-85552532D01*
X179772148Y-85380840D01*
X179830000Y-85090000D01*
X179830000Y-84135461D01*
X181234092Y-84135461D01*
X181258144Y-84785460D01*
X181460613Y-85274264D01*
X181727468Y-85372927D01*
X182700395Y-84400000D01*
X181727468Y-83427073D01*
X181460613Y-83525736D01*
X181234092Y-84135461D01*
X179830000Y-84135461D01*
X179830000Y-79304802D01*
X183358945Y-82833747D01*
X183144539Y-82754092D01*
X182494540Y-82778144D01*
X182005736Y-82980613D01*
X181907073Y-83247468D01*
X182880000Y-84220395D01*
X182894143Y-84206253D01*
X183073748Y-84385858D01*
X183059605Y-84400000D01*
X184032532Y-85372927D01*
X184299387Y-85274264D01*
X184525908Y-84664539D01*
X184501856Y-84014540D01*
X184475069Y-83949871D01*
X187850096Y-87324898D01*
X187795000Y-87601887D01*
X187795000Y-87658113D01*
X187904233Y-88207264D01*
X188215302Y-88672811D01*
X188680849Y-88983880D01*
X189230000Y-89093113D01*
X189779151Y-88983880D01*
X190244698Y-88672811D01*
X190555767Y-88207264D01*
X190665000Y-87658113D01*
X190665000Y-87601887D01*
X190555767Y-87052736D01*
X190244698Y-86587189D01*
X189779151Y-86276120D01*
X189230000Y-86166887D01*
X188906114Y-86231312D01*
X181650783Y-78975981D01*
X182178285Y-78871054D01*
X182660054Y-78549147D01*
X182873301Y-78230000D01*
X182886699Y-78230000D01*
X183099946Y-78549147D01*
X183581715Y-78871054D01*
X184150000Y-78984093D01*
X184718285Y-78871054D01*
X185200054Y-78549147D01*
X185420000Y-78219974D01*
X185639946Y-78549147D01*
X186121715Y-78871054D01*
X186690000Y-78984093D01*
X187258285Y-78871054D01*
X187740054Y-78549147D01*
X188061961Y-78067378D01*
X188175000Y-77499093D01*
X188175000Y-77440907D01*
X188061961Y-76872622D01*
X187740054Y-76390853D01*
X187258285Y-76068946D01*
X186690000Y-75955907D01*
X186121715Y-76068946D01*
X185639946Y-76390853D01*
X185420000Y-76720026D01*
X185200054Y-76390853D01*
X184718285Y-76068946D01*
X184150000Y-75955907D01*
X183581715Y-76068946D01*
X183099946Y-76390853D01*
X182886699Y-76710000D01*
X182873301Y-76710000D01*
X182660054Y-76390853D01*
X182178285Y-76068946D01*
X181610000Y-75955907D01*
X181041715Y-76068946D01*
X180559946Y-76390853D01*
X180340000Y-76720026D01*
X180120054Y-76390853D01*
X179638285Y-76068946D01*
X179070000Y-75955907D01*
X178501715Y-76068946D01*
X178019946Y-76390853D01*
X177800000Y-76720026D01*
X177580054Y-76390853D01*
X177098285Y-76068946D01*
X176530000Y-75955907D01*
X175961715Y-76068946D01*
X175479946Y-76390853D01*
X175450597Y-76434777D01*
X175378327Y-76260302D01*
X175199699Y-76081673D01*
X174966310Y-75985000D01*
X174275750Y-75985000D01*
X174117000Y-76143750D01*
X174117000Y-77343000D01*
X174137000Y-77343000D01*
X174137000Y-77597000D01*
X174117000Y-77597000D01*
X174117000Y-77617000D01*
X173863000Y-77617000D01*
X173863000Y-77597000D01*
X172663750Y-77597000D01*
X172505000Y-77755750D01*
X172505000Y-78446309D01*
X172601673Y-78679698D01*
X172780301Y-78858327D01*
X173013690Y-78955000D01*
X173704250Y-78955000D01*
X173862998Y-78796252D01*
X173862998Y-78955000D01*
X173970198Y-78955000D01*
X172182599Y-80742599D01*
X172017852Y-80989161D01*
X171960000Y-81280000D01*
X171960000Y-83505198D01*
X171213813Y-84251385D01*
X170830409Y-83995203D01*
X170376929Y-83905000D01*
X170272677Y-83905000D01*
X170296994Y-83869410D01*
X170307000Y-83820000D01*
X170307000Y-76493691D01*
X172505000Y-76493691D01*
X172505000Y-77184250D01*
X172663750Y-77343000D01*
X173863000Y-77343000D01*
X173863000Y-76143750D01*
X173704250Y-75985000D01*
X173013690Y-75985000D01*
X172780301Y-76081673D01*
X172601673Y-76260302D01*
X172505000Y-76493691D01*
X170307000Y-76493691D01*
X170307000Y-76200000D01*
X170298315Y-76153841D01*
X170271035Y-76111447D01*
X170229410Y-76083006D01*
X170180000Y-76073000D01*
X152400000Y-76073000D01*
X152353841Y-76081685D01*
X152311447Y-76108965D01*
X152283006Y-76150590D01*
X152273000Y-76200000D01*
X152273000Y-83820000D01*
X152281685Y-83866159D01*
X152308965Y-83908553D01*
X152350590Y-83936994D01*
X152400000Y-83947000D01*
X152738891Y-83947000D01*
X152538559Y-84075910D01*
X152393569Y-84288110D01*
X152385086Y-84330000D01*
X149344033Y-84330000D01*
X149311682Y-84167363D01*
X149292148Y-84069160D01*
X149127401Y-83822599D01*
X149036275Y-83731473D01*
X149104716Y-83566648D01*
X149105284Y-82916205D01*
X148856894Y-82315057D01*
X148397363Y-81854722D01*
X147796648Y-81605284D01*
X147146205Y-81604716D01*
X146545057Y-81853106D01*
X146084722Y-82312637D01*
X146015227Y-82480000D01*
X142425047Y-82480000D01*
X142356894Y-82315057D01*
X141897363Y-81854722D01*
X141296648Y-81605284D01*
X140646205Y-81604716D01*
X140045057Y-81853106D01*
X139584722Y-82312637D01*
X139335284Y-82913352D01*
X139334716Y-83563795D01*
X139140000Y-83563795D01*
X139140000Y-79892532D01*
X139997073Y-79892532D01*
X140095736Y-80159387D01*
X140705461Y-80385908D01*
X141355460Y-80361856D01*
X141844264Y-80159387D01*
X141942927Y-79892532D01*
X146497073Y-79892532D01*
X146595736Y-80159387D01*
X147205461Y-80385908D01*
X147855460Y-80361856D01*
X148344264Y-80159387D01*
X148442927Y-79892532D01*
X147470000Y-78919605D01*
X146497073Y-79892532D01*
X141942927Y-79892532D01*
X140970000Y-78919605D01*
X139997073Y-79892532D01*
X139140000Y-79892532D01*
X139140000Y-78475461D01*
X139324092Y-78475461D01*
X139348144Y-79125460D01*
X139550613Y-79614264D01*
X139817468Y-79712927D01*
X140790395Y-78740000D01*
X141149605Y-78740000D01*
X142122532Y-79712927D01*
X142389387Y-79614264D01*
X142615908Y-79004539D01*
X142596331Y-78475461D01*
X145824092Y-78475461D01*
X145848144Y-79125460D01*
X146050613Y-79614264D01*
X146317468Y-79712927D01*
X147290395Y-78740000D01*
X147649605Y-78740000D01*
X148622532Y-79712927D01*
X148889387Y-79614264D01*
X149115908Y-79004539D01*
X149091856Y-78354540D01*
X148889387Y-77865736D01*
X148622532Y-77767073D01*
X147649605Y-78740000D01*
X147290395Y-78740000D01*
X146317468Y-77767073D01*
X146050613Y-77865736D01*
X145824092Y-78475461D01*
X142596331Y-78475461D01*
X142591856Y-78354540D01*
X142389387Y-77865736D01*
X142122532Y-77767073D01*
X141149605Y-78740000D01*
X140790395Y-78740000D01*
X139817468Y-77767073D01*
X139550613Y-77865736D01*
X139324092Y-78475461D01*
X139140000Y-78475461D01*
X139140000Y-77587468D01*
X139997073Y-77587468D01*
X140970000Y-78560395D01*
X141942927Y-77587468D01*
X146497073Y-77587468D01*
X147470000Y-78560395D01*
X148442927Y-77587468D01*
X148344264Y-77320613D01*
X147734539Y-77094092D01*
X147084540Y-77118144D01*
X146595736Y-77320613D01*
X146497073Y-77587468D01*
X141942927Y-77587468D01*
X141844264Y-77320613D01*
X141234539Y-77094092D01*
X140584540Y-77118144D01*
X140095736Y-77320613D01*
X139997073Y-77587468D01*
X139140000Y-77587468D01*
X139140000Y-74370000D01*
X193600000Y-74370000D01*
X193600000Y-122480000D01*
G36*
X178019946Y-78549147D02*
X178310000Y-78742954D01*
X178310000Y-84775198D01*
X177622403Y-85462795D01*
X177532534Y-85372926D01*
X177799387Y-85274264D01*
X178025908Y-84664539D01*
X178001856Y-84014540D01*
X177799387Y-83525736D01*
X177532532Y-83427073D01*
X176559605Y-84400000D01*
X176573748Y-84414143D01*
X176394143Y-84593748D01*
X176380000Y-84579605D01*
X175407073Y-85552532D01*
X175424623Y-85600000D01*
X172720000Y-85600000D01*
X172429161Y-85657852D01*
X172182599Y-85822599D01*
X171675198Y-86330000D01*
X171266917Y-86330000D01*
X171214851Y-86252078D01*
X170972283Y-86090000D01*
X171214851Y-85927922D01*
X171266917Y-85850000D01*
X171450000Y-85850000D01*
X171740839Y-85792148D01*
X171987401Y-85627401D01*
X173257401Y-84357401D01*
X173405696Y-84135461D01*
X174734092Y-84135461D01*
X174758144Y-84785460D01*
X174960613Y-85274264D01*
X175227468Y-85372927D01*
X176200395Y-84400000D01*
X175227468Y-83427073D01*
X174960613Y-83525736D01*
X174734092Y-84135461D01*
X173405696Y-84135461D01*
X173422148Y-84110840D01*
X173480000Y-83820000D01*
X173480000Y-83247468D01*
X175407073Y-83247468D01*
X176380000Y-84220395D01*
X177352927Y-83247468D01*
X177254264Y-82980613D01*
X176644539Y-82754092D01*
X175994540Y-82778144D01*
X175505736Y-82980613D01*
X175407073Y-83247468D01*
X173480000Y-83247468D01*
X173480000Y-81594802D01*
X176163592Y-78911210D01*
X176530000Y-78984093D01*
X177098285Y-78871054D01*
X177580054Y-78549147D01*
X177800000Y-78219974D01*
X178019946Y-78549147D01*
X178019946Y-78549147D01*
G37*
X178019946Y-78549147D02*
X178310000Y-78742954D01*
X178310000Y-84775198D01*
X177622403Y-85462795D01*
X177532534Y-85372926D01*
X177799387Y-85274264D01*
X178025908Y-84664539D01*
X178001856Y-84014540D01*
X177799387Y-83525736D01*
X177532532Y-83427073D01*
X176559605Y-84400000D01*
X176573748Y-84414143D01*
X176394143Y-84593748D01*
X176380000Y-84579605D01*
X175407073Y-85552532D01*
X175424623Y-85600000D01*
X172720000Y-85600000D01*
X172429161Y-85657852D01*
X172182599Y-85822599D01*
X171675198Y-86330000D01*
X171266917Y-86330000D01*
X171214851Y-86252078D01*
X170972283Y-86090000D01*
X171214851Y-85927922D01*
X171266917Y-85850000D01*
X171450000Y-85850000D01*
X171740839Y-85792148D01*
X171987401Y-85627401D01*
X173257401Y-84357401D01*
X173405696Y-84135461D01*
X174734092Y-84135461D01*
X174758144Y-84785460D01*
X174960613Y-85274264D01*
X175227468Y-85372927D01*
X176200395Y-84400000D01*
X175227468Y-83427073D01*
X174960613Y-83525736D01*
X174734092Y-84135461D01*
X173405696Y-84135461D01*
X173422148Y-84110840D01*
X173480000Y-83820000D01*
X173480000Y-83247468D01*
X175407073Y-83247468D01*
X176380000Y-84220395D01*
X177352927Y-83247468D01*
X177254264Y-82980613D01*
X176644539Y-82754092D01*
X175994540Y-82778144D01*
X175505736Y-82980613D01*
X175407073Y-83247468D01*
X173480000Y-83247468D01*
X173480000Y-81594802D01*
X176163592Y-78911210D01*
X176530000Y-78984093D01*
X177098285Y-78871054D01*
X177580054Y-78549147D01*
X177800000Y-78219974D01*
X178019946Y-78549147D01*
M02*
