%TF.GenerationSoftware,KiCad,Pcbnew,4.0.7*%
%TF.CreationDate,2018-03-28T14:10:15+02:00*%
%TF.ProjectId,esp8266-ws2811-pcb,657370383236362D7773323831312D70,rev?*%
%TF.FileFunction,Soldermask,Top*%
%FSLAX46Y46*%
G04 Gerber Fmt 4.6, Leading zero omitted, Abs format (unit mm)*
G04 Created by KiCad (PCBNEW 4.0.7) date Wed Mar 28 14:10:15 2018*
%MOMM*%
%LPD*%
G01*
G04 APERTURE LIST*
%ADD10C,0.100000*%
%ADD11R,2.100000X2.100000*%
%ADD12O,2.100000X2.100000*%
%ADD13R,3.400000X3.400000*%
%ADD14C,3.400000*%
%ADD15C,2.000000*%
%ADD16O,2.000000X2.000000*%
%ADD17C,2.400000*%
%ADD18R,2.900000X1.500000*%
%ADD19O,2.900000X1.500000*%
%ADD20O,1.500000X2.900000*%
G04 APERTURE END LIST*
D10*
D11*
X171069000Y-108585000D03*
D12*
X171069000Y-106045000D03*
D11*
X171069000Y-119761000D03*
D12*
X171069000Y-117221000D03*
D11*
X152527000Y-108585000D03*
D12*
X152527000Y-106045000D03*
D11*
X152527000Y-119761000D03*
D12*
X152527000Y-117221000D03*
D13*
X187960000Y-109220000D03*
D14*
X187960000Y-104140000D03*
D13*
X179070000Y-118110000D03*
D14*
X184150000Y-118110000D03*
X189230000Y-118110000D03*
D11*
X173990000Y-77470000D03*
D12*
X176530000Y-77470000D03*
X179070000Y-77470000D03*
X181610000Y-77470000D03*
X184150000Y-77470000D03*
X186690000Y-77470000D03*
D15*
X140970000Y-88900000D03*
D16*
X148590000Y-88900000D03*
D15*
X176530000Y-100330000D03*
D16*
X176530000Y-92710000D03*
D15*
X189230000Y-95250000D03*
D16*
X189230000Y-87630000D03*
D15*
X148590000Y-95250000D03*
D16*
X140970000Y-95250000D03*
D17*
X140970000Y-83240000D03*
X140970000Y-78740000D03*
X147470000Y-83240000D03*
X147470000Y-78740000D03*
X182880000Y-84400000D03*
X182880000Y-88900000D03*
X176380000Y-84400000D03*
X176380000Y-88900000D03*
D18*
X154240000Y-85090000D03*
D19*
X154240000Y-87090000D03*
X154240000Y-89090000D03*
X154240000Y-91090000D03*
X154240000Y-93090000D03*
X154240000Y-95090000D03*
X154240000Y-97090000D03*
X154240000Y-99090000D03*
X169640000Y-99090000D03*
X169540000Y-97090000D03*
X169640000Y-95090000D03*
X169640000Y-93090000D03*
X169640000Y-91090000D03*
X169640000Y-89090000D03*
X169640000Y-87090000D03*
X169640000Y-85090000D03*
D20*
X156930000Y-100790000D03*
X158930000Y-100790000D03*
X160930000Y-100790000D03*
X162930000Y-100790000D03*
X164930000Y-100790000D03*
X166930000Y-100790000D03*
D15*
X181610000Y-100330000D03*
D16*
X181610000Y-92710000D03*
M02*
